<?xml version="1.0" encoding="UTF-8" standalone="no"?>
<!DOCTYPE svg PUBLIC "-//W3C//DTD SVG 1.1//EN"
 "http://www.w3.org/Graphics/SVG/1.1/DTD/svg11.dtd">
<!-- Generated by graphviz version 2.43.20190912.0211 (20190912.0211)
 -->
<!-- Title: G Pages: 1 -->
<svg width="299pt" height="4220pt"
 viewBox="0.00 0.00 298.89 4220.20" xmlns="http://www.w3.org/2000/svg" xmlns:xlink="http://www.w3.org/1999/xlink">
<g id="graph0" class="graph" transform="scale(1 1) rotate(0) translate(4 4216.2)">
<title>G</title>
<polygon fill="white" stroke="transparent" points="-4,4 -4,-4216.2 294.89,-4216.2 294.89,4 -4,4"/>
<!-- IDLE0 -->
<g id="node1" class="node">
<title>IDLE0</title>
<ellipse fill="none" stroke="black" cx="206.86" cy="-4185.33" rx="53.07" ry="26.74"/>
<text text-anchor="middle" x="206.86" y="-4189.13" font-family="Times,serif" font-size="14.00">IDLE0</text>
<text text-anchor="middle" x="206.86" y="-4174.13" font-family="Times,serif" font-size="14.00">&#45;&#45;&#45;&#45;&#45;&#45;&#45;&#45;&#45;&#45;&#45;&#45;&#45;</text>
</g>
<!-- IDLE0&#45;&gt;IDLE0 -->
<g id="edge1" class="edge">
<title>IDLE0&#45;&gt;IDLE0</title>
<path fill="none" stroke="#c1b2ff" d="M256.65,-4194.93C268.83,-4194.22 277.89,-4191.02 277.89,-4185.33 277.89,-4181.42 273.61,-4178.69 266.97,-4177.13"/>
<polygon fill="#c1b2ff" stroke="#c1b2ff" points="267.03,-4173.61 256.65,-4175.73 266.09,-4180.54 267.03,-4173.61"/>
<text text-anchor="middle" x="284.39" y="-4181.63" font-family="Times,serif" font-size="14.00">@</text>
</g>
<!-- hello -->
<g id="node2" class="node">
<title>hello</title>
<ellipse fill="none" stroke="black" cx="117.86" cy="-4080.59" rx="53.07" ry="26.74"/>
<text text-anchor="middle" x="117.86" y="-4084.39" font-family="Times,serif" font-size="14.00">hello</text>
<text text-anchor="middle" x="117.86" y="-4069.39" font-family="Times,serif" font-size="14.00">&#45;&#45;&#45;&#45;&#45;&#45;&#45;&#45;&#45;&#45;&#45;&#45;&#45;</text>
</g>
<!-- IDLE0&#45;&gt;hello -->
<g id="edge2" class="edge">
<title>IDLE0&#45;&gt;hello</title>
<path fill="none" stroke="black" d="M173.63,-4164.36C164.18,-4157.6 154.41,-4149.45 146.86,-4140.46 140.9,-4133.36 135.8,-4124.83 131.61,-4116.49"/>
<polygon fill="black" stroke="black" points="134.69,-4114.81 127.28,-4107.24 128.35,-4117.78 134.69,-4114.81"/>
<text text-anchor="middle" x="169.86" y="-4129.26" font-family="Times,serif" font-size="14.00">cmd0=0</text>
</g>
<!-- echo -->
<g id="node3" class="node">
<title>echo</title>
<ellipse fill="none" stroke="black" cx="182.86" cy="-3813.43" rx="53.07" ry="37.45"/>
<text text-anchor="middle" x="182.86" y="-3824.73" font-family="Times,serif" font-size="14.00">echo</text>
<text text-anchor="middle" x="182.86" y="-3809.73" font-family="Times,serif" font-size="14.00">&#45;&#45;&#45;&#45;&#45;&#45;&#45;&#45;&#45;&#45;&#45;&#45;&#45;</text>
<text text-anchor="middle" x="182.86" y="-3794.73" font-family="Times,serif" font-size="14.00">echo=1</text>
</g>
<!-- hello&#45;&gt;echo -->
<g id="edge3" class="edge">
<title>hello&#45;&gt;echo</title>
<path fill="none" stroke="#c1b2ff" d="M139.05,-4055.88C143.61,-4049.69 147.93,-4042.76 150.86,-4035.72 163.61,-4005.08 173.6,-3916.65 178.84,-3861.3"/>
<polygon fill="#c1b2ff" stroke="#c1b2ff" points="182.35,-3861.31 179.79,-3851.03 175.38,-3860.67 182.35,-3861.31"/>
<text text-anchor="middle" x="181.36" y="-3964.52" font-family="Times,serif" font-size="14.00">@</text>
</g>
<!-- H -->
<g id="node4" class="node">
<title>H</title>
<ellipse fill="none" stroke="black" cx="55.86" cy="-3813.43" rx="55.72" ry="69.09"/>
<text text-anchor="middle" x="55.86" y="-3847.23" font-family="Times,serif" font-size="14.00">H</text>
<text text-anchor="middle" x="55.86" y="-3832.23" font-family="Times,serif" font-size="14.00">&#45;&#45;&#45;&#45;&#45;&#45;&#45;&#45;&#45;&#45;&#45;&#45;&#45;</text>
<text text-anchor="middle" x="55.86" y="-3817.23" font-family="Times,serif" font-size="14.00">putchar3=1</text>
<text text-anchor="middle" x="55.86" y="-3802.23" font-family="Times,serif" font-size="14.00">putchar6=1</text>
<text text-anchor="middle" x="55.86" y="-3787.23" font-family="Times,serif" font-size="14.00">rready=1</text>
<text text-anchor="middle" x="55.86" y="-3772.23" font-family="Times,serif" font-size="14.00">wvalid=1</text>
</g>
<!-- hello&#45;&gt;H -->
<g id="edge4" class="edge">
<title>hello&#45;&gt;H</title>
<path fill="none" stroke="black" d="M98.99,-4055.1C95.1,-4049.04 91.41,-4042.37 88.86,-4035.72 71.42,-3990.22 63.15,-3936.18 59.25,-3892.89"/>
<polygon fill="black" stroke="black" points="62.72,-3892.36 58.39,-3882.69 55.74,-3892.95 62.72,-3892.36"/>
<text text-anchor="middle" x="119.86" y="-4024.52" font-family="Times,serif" font-size="14.00">getchar0=0</text>
<text text-anchor="middle" x="119.86" y="-4009.52" font-family="Times,serif" font-size="14.00">getchar1=0</text>
<text text-anchor="middle" x="119.86" y="-3994.52" font-family="Times,serif" font-size="14.00">getchar2=0</text>
<text text-anchor="middle" x="119.86" y="-3979.52" font-family="Times,serif" font-size="14.00">getchar3=0</text>
<text text-anchor="middle" x="119.86" y="-3964.52" font-family="Times,serif" font-size="14.00">getchar4=1</text>
<text text-anchor="middle" x="119.86" y="-3949.52" font-family="Times,serif" font-size="14.00">getchar5=1</text>
<text text-anchor="middle" x="119.86" y="-3934.52" font-family="Times,serif" font-size="14.00">getchar6=0</text>
<text text-anchor="middle" x="119.86" y="-3919.52" font-family="Times,serif" font-size="14.00">getchar7=0</text>
<text text-anchor="middle" x="119.86" y="-3904.52" font-family="Times,serif" font-size="14.00">wready=1</text>
</g>
<!-- echo&#45;&gt;IDLE0 -->
<g id="edge6" class="edge">
<title>echo&#45;&gt;IDLE0</title>
<path fill="none" stroke="#c1b2ff" d="M187.08,-3850.92C188.75,-3866.28 190.58,-3884.35 191.86,-3900.72 198.83,-3989.43 203.43,-4094.01 205.53,-4148"/>
<polygon fill="#c1b2ff" stroke="#c1b2ff" points="202.04,-4148.25 205.92,-4158.1 209.04,-4147.98 202.04,-4148.25"/>
<text text-anchor="middle" x="210.36" y="-4076.89" font-family="Times,serif" font-size="14.00">@</text>
</g>
<!-- H_w -->
<g id="node5" class="node">
<title>H_w</title>
<ellipse fill="none" stroke="black" cx="56.86" cy="-3666.26" rx="53.07" ry="26.74"/>
<text text-anchor="middle" x="56.86" y="-3670.06" font-family="Times,serif" font-size="14.00">H_w</text>
<text text-anchor="middle" x="56.86" y="-3655.06" font-family="Times,serif" font-size="14.00">&#45;&#45;&#45;&#45;&#45;&#45;&#45;&#45;&#45;&#45;&#45;&#45;&#45;</text>
</g>
<!-- H&#45;&gt;H_w -->
<g id="edge5" class="edge">
<title>H&#45;&gt;H_w</title>
<path fill="none" stroke="#c1b2ff" d="M56.33,-3744.09C56.43,-3730.1 56.53,-3715.9 56.61,-3703.57"/>
<polygon fill="#c1b2ff" stroke="#c1b2ff" points="60.11,-3703.3 56.68,-3693.28 53.11,-3703.25 60.11,-3703.3"/>
<text text-anchor="middle" x="63.36" y="-3714.93" font-family="Times,serif" font-size="14.00">@</text>
</g>
<!-- H_w&#45;&gt;H_w -->
<g id="edge7" class="edge">
<title>H_w&#45;&gt;H_w</title>
<path fill="none" stroke="#c1b2ff" d="M106.65,-3675.86C118.83,-3675.15 127.89,-3671.95 127.89,-3666.26 127.89,-3662.35 123.61,-3659.61 116.97,-3658.06"/>
<polygon fill="#c1b2ff" stroke="#c1b2ff" points="117.03,-3654.53 106.65,-3656.66 116.09,-3661.47 117.03,-3654.53"/>
<text text-anchor="middle" x="134.39" y="-3662.56" font-family="Times,serif" font-size="14.00">@</text>
</g>
<!-- e -->
<g id="node6" class="node">
<title>e</title>
<ellipse fill="none" stroke="black" cx="56.86" cy="-3508.49" rx="55.72" ry="79.81"/>
<text text-anchor="middle" x="56.86" y="-3549.79" font-family="Times,serif" font-size="14.00">e</text>
<text text-anchor="middle" x="56.86" y="-3534.79" font-family="Times,serif" font-size="14.00">&#45;&#45;&#45;&#45;&#45;&#45;&#45;&#45;&#45;&#45;&#45;&#45;&#45;</text>
<text text-anchor="middle" x="56.86" y="-3519.79" font-family="Times,serif" font-size="14.00">putchar0=1</text>
<text text-anchor="middle" x="56.86" y="-3504.79" font-family="Times,serif" font-size="14.00">putchar2=1</text>
<text text-anchor="middle" x="56.86" y="-3489.79" font-family="Times,serif" font-size="14.00">putchar5=1</text>
<text text-anchor="middle" x="56.86" y="-3474.79" font-family="Times,serif" font-size="14.00">putchar6=1</text>
<text text-anchor="middle" x="56.86" y="-3459.79" font-family="Times,serif" font-size="14.00">wvalid=1</text>
</g>
<!-- H_w&#45;&gt;e -->
<g id="edge8" class="edge">
<title>H_w&#45;&gt;e</title>
<path fill="none" stroke="black" d="M56.86,-3639.19C56.86,-3627.72 56.86,-3613.5 56.86,-3598.73"/>
<polygon fill="black" stroke="black" points="60.36,-3598.44 56.86,-3588.44 53.36,-3598.44 60.36,-3598.44"/>
<text text-anchor="middle" x="84.86" y="-3610.19" font-family="Times,serif" font-size="14.00">wready=1</text>
</g>
<!-- e_w -->
<g id="node7" class="node">
<title>e_w</title>
<ellipse fill="none" stroke="black" cx="56.86" cy="-3350.71" rx="53.07" ry="26.74"/>
<text text-anchor="middle" x="56.86" y="-3354.51" font-family="Times,serif" font-size="14.00">e_w</text>
<text text-anchor="middle" x="56.86" y="-3339.51" font-family="Times,serif" font-size="14.00">&#45;&#45;&#45;&#45;&#45;&#45;&#45;&#45;&#45;&#45;&#45;&#45;&#45;</text>
</g>
<!-- e&#45;&gt;e_w -->
<g id="edge9" class="edge">
<title>e&#45;&gt;e_w</title>
<path fill="none" stroke="#c1b2ff" d="M56.86,-3428.23C56.86,-3414.05 56.86,-3399.92 56.86,-3387.74"/>
<polygon fill="#c1b2ff" stroke="#c1b2ff" points="60.36,-3387.59 56.86,-3377.59 53.36,-3387.59 60.36,-3387.59"/>
<text text-anchor="middle" x="63.36" y="-3399.38" font-family="Times,serif" font-size="14.00">@</text>
</g>
<!-- e_w&#45;&gt;e_w -->
<g id="edge10" class="edge">
<title>e_w&#45;&gt;e_w</title>
<path fill="none" stroke="#c1b2ff" d="M106.65,-3360.31C118.83,-3359.6 127.89,-3356.4 127.89,-3350.71 127.89,-3346.8 123.61,-3344.07 116.97,-3342.51"/>
<polygon fill="#c1b2ff" stroke="#c1b2ff" points="117.03,-3338.99 106.65,-3341.11 116.09,-3345.92 117.03,-3338.99"/>
<text text-anchor="middle" x="134.39" y="-3347.01" font-family="Times,serif" font-size="14.00">@</text>
</g>
<!-- l0 -->
<g id="node8" class="node">
<title>l0</title>
<ellipse fill="none" stroke="black" cx="56.86" cy="-3192.94" rx="55.72" ry="79.81"/>
<text text-anchor="middle" x="56.86" y="-3234.24" font-family="Times,serif" font-size="14.00">l0</text>
<text text-anchor="middle" x="56.86" y="-3219.24" font-family="Times,serif" font-size="14.00">&#45;&#45;&#45;&#45;&#45;&#45;&#45;&#45;&#45;&#45;&#45;&#45;&#45;</text>
<text text-anchor="middle" x="56.86" y="-3204.24" font-family="Times,serif" font-size="14.00">putchar2=1</text>
<text text-anchor="middle" x="56.86" y="-3189.24" font-family="Times,serif" font-size="14.00">putchar3=1</text>
<text text-anchor="middle" x="56.86" y="-3174.24" font-family="Times,serif" font-size="14.00">putchar5=1</text>
<text text-anchor="middle" x="56.86" y="-3159.24" font-family="Times,serif" font-size="14.00">putchar6=1</text>
<text text-anchor="middle" x="56.86" y="-3144.24" font-family="Times,serif" font-size="14.00">wvalid=1</text>
</g>
<!-- e_w&#45;&gt;l0 -->
<g id="edge11" class="edge">
<title>e_w&#45;&gt;l0</title>
<path fill="none" stroke="black" d="M56.86,-3323.64C56.86,-3312.17 56.86,-3297.95 56.86,-3283.18"/>
<polygon fill="black" stroke="black" points="60.36,-3282.89 56.86,-3272.89 53.36,-3282.89 60.36,-3282.89"/>
<text text-anchor="middle" x="84.86" y="-3294.64" font-family="Times,serif" font-size="14.00">wready=1</text>
</g>
<!-- l0_w -->
<g id="node9" class="node">
<title>l0_w</title>
<ellipse fill="none" stroke="black" cx="56.86" cy="-3035.17" rx="53.07" ry="26.74"/>
<text text-anchor="middle" x="56.86" y="-3038.97" font-family="Times,serif" font-size="14.00">l0_w</text>
<text text-anchor="middle" x="56.86" y="-3023.97" font-family="Times,serif" font-size="14.00">&#45;&#45;&#45;&#45;&#45;&#45;&#45;&#45;&#45;&#45;&#45;&#45;&#45;</text>
</g>
<!-- l0&#45;&gt;l0_w -->
<g id="edge12" class="edge">
<title>l0&#45;&gt;l0_w</title>
<path fill="none" stroke="#c1b2ff" d="M56.86,-3112.68C56.86,-3098.5 56.86,-3084.38 56.86,-3072.2"/>
<polygon fill="#c1b2ff" stroke="#c1b2ff" points="60.36,-3072.04 56.86,-3062.04 53.36,-3072.04 60.36,-3072.04"/>
<text text-anchor="middle" x="63.36" y="-3083.84" font-family="Times,serif" font-size="14.00">@</text>
</g>
<!-- l0_w&#45;&gt;l0_w -->
<g id="edge13" class="edge">
<title>l0_w&#45;&gt;l0_w</title>
<path fill="none" stroke="#c1b2ff" d="M106.65,-3044.76C118.83,-3044.05 127.89,-3040.85 127.89,-3035.17 127.89,-3031.26 123.61,-3028.52 116.97,-3026.96"/>
<polygon fill="#c1b2ff" stroke="#c1b2ff" points="117.03,-3023.44 106.65,-3025.57 116.09,-3030.38 117.03,-3023.44"/>
<text text-anchor="middle" x="134.39" y="-3031.47" font-family="Times,serif" font-size="14.00">@</text>
</g>
<!-- l1 -->
<g id="node10" class="node">
<title>l1</title>
<ellipse fill="none" stroke="black" cx="56.86" cy="-2877.39" rx="55.72" ry="79.81"/>
<text text-anchor="middle" x="56.86" y="-2918.69" font-family="Times,serif" font-size="14.00">l1</text>
<text text-anchor="middle" x="56.86" y="-2903.69" font-family="Times,serif" font-size="14.00">&#45;&#45;&#45;&#45;&#45;&#45;&#45;&#45;&#45;&#45;&#45;&#45;&#45;</text>
<text text-anchor="middle" x="56.86" y="-2888.69" font-family="Times,serif" font-size="14.00">putchar2=1</text>
<text text-anchor="middle" x="56.86" y="-2873.69" font-family="Times,serif" font-size="14.00">putchar3=1</text>
<text text-anchor="middle" x="56.86" y="-2858.69" font-family="Times,serif" font-size="14.00">putchar5=1</text>
<text text-anchor="middle" x="56.86" y="-2843.69" font-family="Times,serif" font-size="14.00">putchar6=1</text>
<text text-anchor="middle" x="56.86" y="-2828.69" font-family="Times,serif" font-size="14.00">wvalid=1</text>
</g>
<!-- l0_w&#45;&gt;l1 -->
<g id="edge14" class="edge">
<title>l0_w&#45;&gt;l1</title>
<path fill="none" stroke="black" d="M56.86,-3008.09C56.86,-2996.62 56.86,-2982.41 56.86,-2967.64"/>
<polygon fill="black" stroke="black" points="60.36,-2967.35 56.86,-2957.35 53.36,-2967.35 60.36,-2967.35"/>
<text text-anchor="middle" x="84.86" y="-2979.1" font-family="Times,serif" font-size="14.00">wready=1</text>
</g>
<!-- l1_w -->
<g id="node11" class="node">
<title>l1_w</title>
<ellipse fill="none" stroke="black" cx="56.86" cy="-2719.62" rx="53.07" ry="26.74"/>
<text text-anchor="middle" x="56.86" y="-2723.42" font-family="Times,serif" font-size="14.00">l1_w</text>
<text text-anchor="middle" x="56.86" y="-2708.42" font-family="Times,serif" font-size="14.00">&#45;&#45;&#45;&#45;&#45;&#45;&#45;&#45;&#45;&#45;&#45;&#45;&#45;</text>
</g>
<!-- l1&#45;&gt;l1_w -->
<g id="edge15" class="edge">
<title>l1&#45;&gt;l1_w</title>
<path fill="none" stroke="#c1b2ff" d="M56.86,-2797.14C56.86,-2782.95 56.86,-2768.83 56.86,-2756.65"/>
<polygon fill="#c1b2ff" stroke="#c1b2ff" points="60.36,-2756.49 56.86,-2746.49 53.36,-2756.49 60.36,-2756.49"/>
<text text-anchor="middle" x="63.36" y="-2768.29" font-family="Times,serif" font-size="14.00">@</text>
</g>
<!-- l1_w&#45;&gt;l1_w -->
<g id="edge16" class="edge">
<title>l1_w&#45;&gt;l1_w</title>
<path fill="none" stroke="#c1b2ff" d="M106.65,-2729.22C118.83,-2728.51 127.89,-2725.31 127.89,-2719.62 127.89,-2715.71 123.61,-2712.98 116.97,-2711.42"/>
<polygon fill="#c1b2ff" stroke="#c1b2ff" points="117.03,-2707.89 106.65,-2710.02 116.09,-2714.83 117.03,-2707.89"/>
<text text-anchor="middle" x="134.39" y="-2715.92" font-family="Times,serif" font-size="14.00">@</text>
</g>
<!-- o0 -->
<g id="node12" class="node">
<title>o0</title>
<ellipse fill="none" stroke="black" cx="57.86" cy="-2540.63" rx="55.72" ry="101.23"/>
<text text-anchor="middle" x="57.86" y="-2596.93" font-family="Times,serif" font-size="14.00">o0</text>
<text text-anchor="middle" x="57.86" y="-2581.93" font-family="Times,serif" font-size="14.00">&#45;&#45;&#45;&#45;&#45;&#45;&#45;&#45;&#45;&#45;&#45;&#45;&#45;</text>
<text text-anchor="middle" x="57.86" y="-2566.93" font-family="Times,serif" font-size="14.00">putchar0=1</text>
<text text-anchor="middle" x="57.86" y="-2551.93" font-family="Times,serif" font-size="14.00">putchar1=1</text>
<text text-anchor="middle" x="57.86" y="-2536.93" font-family="Times,serif" font-size="14.00">putchar2=1</text>
<text text-anchor="middle" x="57.86" y="-2521.93" font-family="Times,serif" font-size="14.00">putchar3=1</text>
<text text-anchor="middle" x="57.86" y="-2506.93" font-family="Times,serif" font-size="14.00">putchar5=1</text>
<text text-anchor="middle" x="57.86" y="-2491.93" font-family="Times,serif" font-size="14.00">putchar6=1</text>
<text text-anchor="middle" x="57.86" y="-2476.93" font-family="Times,serif" font-size="14.00">wvalid=1</text>
</g>
<!-- l1_w&#45;&gt;o0 -->
<g id="edge17" class="edge">
<title>l1_w&#45;&gt;o0</title>
<path fill="none" stroke="black" d="M57.01,-2692.5C57.07,-2681.25 57.15,-2667.27 57.24,-2652.38"/>
<polygon fill="black" stroke="black" points="60.74,-2651.98 57.29,-2641.96 53.74,-2651.94 60.74,-2651.98"/>
<text text-anchor="middle" x="85.86" y="-2663.55" font-family="Times,serif" font-size="14.00">wready=1</text>
</g>
<!-- o0_w -->
<g id="node13" class="node">
<title>o0_w</title>
<ellipse fill="none" stroke="black" cx="61.86" cy="-2361.65" rx="53.07" ry="26.74"/>
<text text-anchor="middle" x="61.86" y="-2365.45" font-family="Times,serif" font-size="14.00">o0_w</text>
<text text-anchor="middle" x="61.86" y="-2350.45" font-family="Times,serif" font-size="14.00">&#45;&#45;&#45;&#45;&#45;&#45;&#45;&#45;&#45;&#45;&#45;&#45;&#45;</text>
</g>
<!-- o0&#45;&gt;o0_w -->
<g id="edge18" class="edge">
<title>o0&#45;&gt;o0_w</title>
<path fill="none" stroke="#c1b2ff" d="M60.12,-2439.5C60.45,-2424.99 60.77,-2410.89 61.04,-2398.82"/>
<polygon fill="#c1b2ff" stroke="#c1b2ff" points="64.54,-2398.86 61.27,-2388.78 57.55,-2398.7 64.54,-2398.86"/>
<text text-anchor="middle" x="67.36" y="-2410.32" font-family="Times,serif" font-size="14.00">@</text>
</g>
<!-- o0_w&#45;&gt;o0_w -->
<g id="edge19" class="edge">
<title>o0_w&#45;&gt;o0_w</title>
<path fill="none" stroke="#c1b2ff" d="M111.65,-2371.24C123.83,-2370.53 132.89,-2367.33 132.89,-2361.65 132.89,-2357.74 128.61,-2355 121.97,-2353.44"/>
<polygon fill="#c1b2ff" stroke="#c1b2ff" points="122.03,-2349.92 111.65,-2352.05 121.09,-2356.86 122.03,-2349.92"/>
<text text-anchor="middle" x="139.39" y="-2357.95" font-family="Times,serif" font-size="14.00">@</text>
</g>
<!-- space -->
<g id="node14" class="node">
<title>space</title>
<ellipse fill="none" stroke="black" cx="77.86" cy="-2235.69" rx="55.72" ry="48.17"/>
<text text-anchor="middle" x="77.86" y="-2254.49" font-family="Times,serif" font-size="14.00">space</text>
<text text-anchor="middle" x="77.86" y="-2239.49" font-family="Times,serif" font-size="14.00">&#45;&#45;&#45;&#45;&#45;&#45;&#45;&#45;&#45;&#45;&#45;&#45;&#45;</text>
<text text-anchor="middle" x="77.86" y="-2224.49" font-family="Times,serif" font-size="14.00">putchar5=1</text>
<text text-anchor="middle" x="77.86" y="-2209.49" font-family="Times,serif" font-size="14.00">wvalid=1</text>
</g>
<!-- o0_w&#45;&gt;space -->
<g id="edge20" class="edge">
<title>o0_w&#45;&gt;space</title>
<path fill="none" stroke="black" d="M65.22,-2334.66C66.75,-2322.78 68.63,-2308.2 70.47,-2293.95"/>
<polygon fill="black" stroke="black" points="73.99,-2294.04 71.8,-2283.68 67.05,-2293.15 73.99,-2294.04"/>
<text text-anchor="middle" x="97.86" y="-2305.58" font-family="Times,serif" font-size="14.00">wready=1</text>
</g>
<!-- space_w -->
<g id="node15" class="node">
<title>space_w</title>
<ellipse fill="none" stroke="black" cx="143.86" cy="-2109.74" rx="53.07" ry="26.74"/>
<text text-anchor="middle" x="143.86" y="-2113.54" font-family="Times,serif" font-size="14.00">space_w</text>
<text text-anchor="middle" x="143.86" y="-2098.54" font-family="Times,serif" font-size="14.00">&#45;&#45;&#45;&#45;&#45;&#45;&#45;&#45;&#45;&#45;&#45;&#45;&#45;</text>
</g>
<!-- space&#45;&gt;space_w -->
<g id="edge21" class="edge">
<title>space&#45;&gt;space_w</title>
<path fill="none" stroke="#c1b2ff" d="M100.76,-2191.69C108.88,-2176.43 117.91,-2159.48 125.6,-2145.04"/>
<polygon fill="#c1b2ff" stroke="#c1b2ff" points="128.82,-2146.43 130.43,-2135.96 122.64,-2143.14 128.82,-2146.43"/>
<text text-anchor="middle" x="125.36" y="-2158.41" font-family="Times,serif" font-size="14.00">@</text>
</g>
<!-- space_w&#45;&gt;space_w -->
<g id="edge22" class="edge">
<title>space_w&#45;&gt;space_w</title>
<path fill="none" stroke="#c1b2ff" d="M193.65,-2119.34C205.83,-2118.63 214.89,-2115.43 214.89,-2109.74 214.89,-2105.83 210.61,-2103.1 203.97,-2101.54"/>
<polygon fill="#c1b2ff" stroke="#c1b2ff" points="204.03,-2098.01 193.65,-2100.14 203.09,-2104.95 204.03,-2098.01"/>
<text text-anchor="middle" x="221.39" y="-2106.04" font-family="Times,serif" font-size="14.00">@</text>
</g>
<!-- W -->
<g id="node16" class="node">
<title>W</title>
<ellipse fill="none" stroke="black" cx="143.86" cy="-1941.36" rx="55.72" ry="90.52"/>
<text text-anchor="middle" x="143.86" y="-1990.16" font-family="Times,serif" font-size="14.00">W</text>
<text text-anchor="middle" x="143.86" y="-1975.16" font-family="Times,serif" font-size="14.00">&#45;&#45;&#45;&#45;&#45;&#45;&#45;&#45;&#45;&#45;&#45;&#45;&#45;</text>
<text text-anchor="middle" x="143.86" y="-1960.16" font-family="Times,serif" font-size="14.00">putchar0=1</text>
<text text-anchor="middle" x="143.86" y="-1945.16" font-family="Times,serif" font-size="14.00">putchar1=1</text>
<text text-anchor="middle" x="143.86" y="-1930.16" font-family="Times,serif" font-size="14.00">putchar2=1</text>
<text text-anchor="middle" x="143.86" y="-1915.16" font-family="Times,serif" font-size="14.00">putchar4=1</text>
<text text-anchor="middle" x="143.86" y="-1900.16" font-family="Times,serif" font-size="14.00">putchar6=1</text>
<text text-anchor="middle" x="143.86" y="-1885.16" font-family="Times,serif" font-size="14.00">wvalid=1</text>
</g>
<!-- space_w&#45;&gt;W -->
<g id="edge23" class="edge">
<title>space_w&#45;&gt;W</title>
<path fill="none" stroke="black" d="M143.86,-2082.74C143.86,-2071.38 143.86,-2057.26 143.86,-2042.39"/>
<polygon fill="black" stroke="black" points="147.36,-2042 143.86,-2032 140.36,-2042 147.36,-2042"/>
<text text-anchor="middle" x="171.86" y="-2053.67" font-family="Times,serif" font-size="14.00">wready=1</text>
</g>
<!-- W_w -->
<g id="node17" class="node">
<title>W_w</title>
<ellipse fill="none" stroke="black" cx="143.86" cy="-1772.98" rx="53.07" ry="26.74"/>
<text text-anchor="middle" x="143.86" y="-1776.78" font-family="Times,serif" font-size="14.00">W_w</text>
<text text-anchor="middle" x="143.86" y="-1761.78" font-family="Times,serif" font-size="14.00">&#45;&#45;&#45;&#45;&#45;&#45;&#45;&#45;&#45;&#45;&#45;&#45;&#45;</text>
</g>
<!-- W&#45;&gt;W_w -->
<g id="edge24" class="edge">
<title>W&#45;&gt;W_w</title>
<path fill="none" stroke="#c1b2ff" d="M143.86,-1850.84C143.86,-1836.44 143.86,-1822.3 143.86,-1810.15"/>
<polygon fill="#c1b2ff" stroke="#c1b2ff" points="147.36,-1810.03 143.86,-1800.03 140.36,-1810.03 147.36,-1810.03"/>
<text text-anchor="middle" x="150.36" y="-1821.65" font-family="Times,serif" font-size="14.00">@</text>
</g>
<!-- W_w&#45;&gt;W_w -->
<g id="edge25" class="edge">
<title>W_w&#45;&gt;W_w</title>
<path fill="none" stroke="#c1b2ff" d="M193.65,-1782.58C205.83,-1781.87 214.89,-1778.67 214.89,-1772.98 214.89,-1769.07 210.61,-1766.34 203.97,-1764.78"/>
<polygon fill="#c1b2ff" stroke="#c1b2ff" points="204.03,-1761.25 193.65,-1763.38 203.09,-1768.19 204.03,-1761.25"/>
<text text-anchor="middle" x="221.39" y="-1769.28" font-family="Times,serif" font-size="14.00">@</text>
</g>
<!-- o1 -->
<g id="node18" class="node">
<title>o1</title>
<ellipse fill="none" stroke="black" cx="144.86" cy="-1593.99" rx="55.72" ry="101.23"/>
<text text-anchor="middle" x="144.86" y="-1650.29" font-family="Times,serif" font-size="14.00">o1</text>
<text text-anchor="middle" x="144.86" y="-1635.29" font-family="Times,serif" font-size="14.00">&#45;&#45;&#45;&#45;&#45;&#45;&#45;&#45;&#45;&#45;&#45;&#45;&#45;</text>
<text text-anchor="middle" x="144.86" y="-1620.29" font-family="Times,serif" font-size="14.00">putchar0=1</text>
<text text-anchor="middle" x="144.86" y="-1605.29" font-family="Times,serif" font-size="14.00">putchar1=1</text>
<text text-anchor="middle" x="144.86" y="-1590.29" font-family="Times,serif" font-size="14.00">putchar2=1</text>
<text text-anchor="middle" x="144.86" y="-1575.29" font-family="Times,serif" font-size="14.00">putchar3=1</text>
<text text-anchor="middle" x="144.86" y="-1560.29" font-family="Times,serif" font-size="14.00">putchar5=1</text>
<text text-anchor="middle" x="144.86" y="-1545.29" font-family="Times,serif" font-size="14.00">putchar6=1</text>
<text text-anchor="middle" x="144.86" y="-1530.29" font-family="Times,serif" font-size="14.00">wvalid=1</text>
</g>
<!-- W_w&#45;&gt;o1 -->
<g id="edge26" class="edge">
<title>W_w&#45;&gt;o1</title>
<path fill="none" stroke="black" d="M144.01,-1745.87C144.07,-1734.62 144.15,-1720.63 144.24,-1705.74"/>
<polygon fill="black" stroke="black" points="147.74,-1705.34 144.29,-1695.32 140.74,-1705.3 147.74,-1705.34"/>
<text text-anchor="middle" x="172.86" y="-1716.91" font-family="Times,serif" font-size="14.00">wready=1</text>
</g>
<!-- o1_w -->
<g id="node19" class="node">
<title>o1_w</title>
<ellipse fill="none" stroke="black" cx="144.86" cy="-1415.01" rx="53.07" ry="26.74"/>
<text text-anchor="middle" x="144.86" y="-1418.81" font-family="Times,serif" font-size="14.00">o1_w</text>
<text text-anchor="middle" x="144.86" y="-1403.81" font-family="Times,serif" font-size="14.00">&#45;&#45;&#45;&#45;&#45;&#45;&#45;&#45;&#45;&#45;&#45;&#45;&#45;</text>
</g>
<!-- o1&#45;&gt;o1_w -->
<g id="edge27" class="edge">
<title>o1&#45;&gt;o1_w</title>
<path fill="none" stroke="#c1b2ff" d="M144.86,-1492.86C144.86,-1478.35 144.86,-1464.25 144.86,-1452.18"/>
<polygon fill="#c1b2ff" stroke="#c1b2ff" points="148.36,-1452.14 144.86,-1442.14 141.36,-1452.14 148.36,-1452.14"/>
<text text-anchor="middle" x="151.36" y="-1463.68" font-family="Times,serif" font-size="14.00">@</text>
</g>
<!-- o1_w&#45;&gt;o1_w -->
<g id="edge28" class="edge">
<title>o1_w&#45;&gt;o1_w</title>
<path fill="none" stroke="#c1b2ff" d="M194.65,-1424.61C206.83,-1423.9 215.89,-1420.7 215.89,-1415.01 215.89,-1411.1 211.61,-1408.36 204.97,-1406.81"/>
<polygon fill="#c1b2ff" stroke="#c1b2ff" points="205.03,-1403.28 194.65,-1405.41 204.09,-1410.22 205.03,-1403.28"/>
<text text-anchor="middle" x="222.39" y="-1411.31" font-family="Times,serif" font-size="14.00">@</text>
</g>
<!-- r -->
<g id="node20" class="node">
<title>r</title>
<ellipse fill="none" stroke="black" cx="144.86" cy="-1257.24" rx="55.72" ry="79.81"/>
<text text-anchor="middle" x="144.86" y="-1298.54" font-family="Times,serif" font-size="14.00">r</text>
<text text-anchor="middle" x="144.86" y="-1283.54" font-family="Times,serif" font-size="14.00">&#45;&#45;&#45;&#45;&#45;&#45;&#45;&#45;&#45;&#45;&#45;&#45;&#45;</text>
<text text-anchor="middle" x="144.86" y="-1268.54" font-family="Times,serif" font-size="14.00">putchar1=1</text>
<text text-anchor="middle" x="144.86" y="-1253.54" font-family="Times,serif" font-size="14.00">putchar4=1</text>
<text text-anchor="middle" x="144.86" y="-1238.54" font-family="Times,serif" font-size="14.00">putchar5=1</text>
<text text-anchor="middle" x="144.86" y="-1223.54" font-family="Times,serif" font-size="14.00">putchar6=1</text>
<text text-anchor="middle" x="144.86" y="-1208.54" font-family="Times,serif" font-size="14.00">wvalid=1</text>
</g>
<!-- o1_w&#45;&gt;r -->
<g id="edge29" class="edge">
<title>o1_w&#45;&gt;r</title>
<path fill="none" stroke="black" d="M144.86,-1387.94C144.86,-1376.46 144.86,-1362.25 144.86,-1347.48"/>
<polygon fill="black" stroke="black" points="148.36,-1347.19 144.86,-1337.19 141.36,-1347.19 148.36,-1347.19"/>
<text text-anchor="middle" x="172.86" y="-1358.94" font-family="Times,serif" font-size="14.00">wready=1</text>
</g>
<!-- r_w -->
<g id="node21" class="node">
<title>r_w</title>
<ellipse fill="none" stroke="black" cx="144.86" cy="-1099.46" rx="53.07" ry="26.74"/>
<text text-anchor="middle" x="144.86" y="-1103.26" font-family="Times,serif" font-size="14.00">r_w</text>
<text text-anchor="middle" x="144.86" y="-1088.26" font-family="Times,serif" font-size="14.00">&#45;&#45;&#45;&#45;&#45;&#45;&#45;&#45;&#45;&#45;&#45;&#45;&#45;</text>
</g>
<!-- r&#45;&gt;r_w -->
<g id="edge30" class="edge">
<title>r&#45;&gt;r_w</title>
<path fill="none" stroke="#c1b2ff" d="M144.86,-1176.98C144.86,-1162.8 144.86,-1148.67 144.86,-1136.49"/>
<polygon fill="#c1b2ff" stroke="#c1b2ff" points="148.36,-1136.34 144.86,-1126.34 141.36,-1136.34 148.36,-1136.34"/>
<text text-anchor="middle" x="151.36" y="-1148.13" font-family="Times,serif" font-size="14.00">@</text>
</g>
<!-- r_w&#45;&gt;r_w -->
<g id="edge31" class="edge">
<title>r_w&#45;&gt;r_w</title>
<path fill="none" stroke="#c1b2ff" d="M194.65,-1109.06C206.83,-1108.35 215.89,-1105.15 215.89,-1099.46 215.89,-1095.55 211.61,-1092.82 204.97,-1091.26"/>
<polygon fill="#c1b2ff" stroke="#c1b2ff" points="205.03,-1087.74 194.65,-1089.86 204.09,-1094.67 205.03,-1087.74"/>
<text text-anchor="middle" x="222.39" y="-1095.76" font-family="Times,serif" font-size="14.00">@</text>
</g>
<!-- l2 -->
<g id="node22" class="node">
<title>l2</title>
<ellipse fill="none" stroke="black" cx="144.86" cy="-941.69" rx="55.72" ry="79.81"/>
<text text-anchor="middle" x="144.86" y="-982.99" font-family="Times,serif" font-size="14.00">l2</text>
<text text-anchor="middle" x="144.86" y="-967.99" font-family="Times,serif" font-size="14.00">&#45;&#45;&#45;&#45;&#45;&#45;&#45;&#45;&#45;&#45;&#45;&#45;&#45;</text>
<text text-anchor="middle" x="144.86" y="-952.99" font-family="Times,serif" font-size="14.00">putchar2=1</text>
<text text-anchor="middle" x="144.86" y="-937.99" font-family="Times,serif" font-size="14.00">putchar3=1</text>
<text text-anchor="middle" x="144.86" y="-922.99" font-family="Times,serif" font-size="14.00">putchar5=1</text>
<text text-anchor="middle" x="144.86" y="-907.99" font-family="Times,serif" font-size="14.00">putchar6=1</text>
<text text-anchor="middle" x="144.86" y="-892.99" font-family="Times,serif" font-size="14.00">wvalid=1</text>
</g>
<!-- r_w&#45;&gt;l2 -->
<g id="edge32" class="edge">
<title>r_w&#45;&gt;l2</title>
<path fill="none" stroke="black" d="M144.86,-1072.39C144.86,-1060.92 144.86,-1046.7 144.86,-1031.93"/>
<polygon fill="black" stroke="black" points="148.36,-1031.64 144.86,-1021.64 141.36,-1031.64 148.36,-1031.64"/>
<text text-anchor="middle" x="172.86" y="-1043.39" font-family="Times,serif" font-size="14.00">wready=1</text>
</g>
<!-- l2_w -->
<g id="node23" class="node">
<title>l2_w</title>
<ellipse fill="none" stroke="black" cx="144.86" cy="-783.92" rx="53.07" ry="26.74"/>
<text text-anchor="middle" x="144.86" y="-787.72" font-family="Times,serif" font-size="14.00">l2_w</text>
<text text-anchor="middle" x="144.86" y="-772.72" font-family="Times,serif" font-size="14.00">&#45;&#45;&#45;&#45;&#45;&#45;&#45;&#45;&#45;&#45;&#45;&#45;&#45;</text>
</g>
<!-- l2&#45;&gt;l2_w -->
<g id="edge33" class="edge">
<title>l2&#45;&gt;l2_w</title>
<path fill="none" stroke="#c1b2ff" d="M144.86,-861.43C144.86,-847.25 144.86,-833.13 144.86,-820.95"/>
<polygon fill="#c1b2ff" stroke="#c1b2ff" points="148.36,-820.79 144.86,-810.79 141.36,-820.79 148.36,-820.79"/>
<text text-anchor="middle" x="151.36" y="-832.59" font-family="Times,serif" font-size="14.00">@</text>
</g>
<!-- l2_w&#45;&gt;l2_w -->
<g id="edge34" class="edge">
<title>l2_w&#45;&gt;l2_w</title>
<path fill="none" stroke="#c1b2ff" d="M194.65,-793.51C206.83,-792.8 215.89,-789.6 215.89,-783.92 215.89,-780.01 211.61,-777.27 204.97,-775.71"/>
<polygon fill="#c1b2ff" stroke="#c1b2ff" points="205.03,-772.19 194.65,-774.32 204.09,-779.13 205.03,-772.19"/>
<text text-anchor="middle" x="222.39" y="-780.22" font-family="Times,serif" font-size="14.00">@</text>
</g>
<!-- d -->
<g id="node24" class="node">
<title>d</title>
<ellipse fill="none" stroke="black" cx="144.86" cy="-636.75" rx="55.72" ry="69.09"/>
<text text-anchor="middle" x="144.86" y="-670.55" font-family="Times,serif" font-size="14.00">d</text>
<text text-anchor="middle" x="144.86" y="-655.55" font-family="Times,serif" font-size="14.00">&#45;&#45;&#45;&#45;&#45;&#45;&#45;&#45;&#45;&#45;&#45;&#45;&#45;</text>
<text text-anchor="middle" x="144.86" y="-640.55" font-family="Times,serif" font-size="14.00">putchar2=1</text>
<text text-anchor="middle" x="144.86" y="-625.55" font-family="Times,serif" font-size="14.00">putchar5=1</text>
<text text-anchor="middle" x="144.86" y="-610.55" font-family="Times,serif" font-size="14.00">putchar6=1</text>
<text text-anchor="middle" x="144.86" y="-595.55" font-family="Times,serif" font-size="14.00">wvalid=1</text>
</g>
<!-- l2_w&#45;&gt;d -->
<g id="edge35" class="edge">
<title>l2_w&#45;&gt;d</title>
<path fill="none" stroke="black" d="M144.86,-756.96C144.86,-745.37 144.86,-731.02 144.86,-716.34"/>
<polygon fill="black" stroke="black" points="148.36,-716.15 144.86,-706.15 141.36,-716.15 148.36,-716.15"/>
<text text-anchor="middle" x="172.86" y="-727.85" font-family="Times,serif" font-size="14.00">wready=1</text>
</g>
<!-- d_w -->
<g id="node25" class="node">
<title>d_w</title>
<ellipse fill="none" stroke="black" cx="144.86" cy="-489.58" rx="53.07" ry="26.74"/>
<text text-anchor="middle" x="144.86" y="-493.38" font-family="Times,serif" font-size="14.00">d_w</text>
<text text-anchor="middle" x="144.86" y="-478.38" font-family="Times,serif" font-size="14.00">&#45;&#45;&#45;&#45;&#45;&#45;&#45;&#45;&#45;&#45;&#45;&#45;&#45;</text>
</g>
<!-- d&#45;&gt;d_w -->
<g id="edge36" class="edge">
<title>d&#45;&gt;d_w</title>
<path fill="none" stroke="#c1b2ff" d="M144.86,-567.42C144.86,-553.42 144.86,-539.22 144.86,-526.9"/>
<polygon fill="#c1b2ff" stroke="#c1b2ff" points="148.36,-526.6 144.86,-516.6 141.36,-526.6 148.36,-526.6"/>
<text text-anchor="middle" x="151.36" y="-538.25" font-family="Times,serif" font-size="14.00">@</text>
</g>
<!-- d_w&#45;&gt;d_w -->
<g id="edge37" class="edge">
<title>d_w&#45;&gt;d_w</title>
<path fill="none" stroke="#c1b2ff" d="M194.65,-499.18C206.83,-498.47 215.89,-495.27 215.89,-489.58 215.89,-485.67 211.61,-482.94 204.97,-481.38"/>
<polygon fill="#c1b2ff" stroke="#c1b2ff" points="205.03,-477.86 194.65,-479.99 204.09,-484.79 205.03,-477.86"/>
<text text-anchor="middle" x="222.39" y="-485.88" font-family="Times,serif" font-size="14.00">@</text>
</g>
<!-- yeah -->
<g id="node26" class="node">
<title>yeah</title>
<ellipse fill="none" stroke="black" cx="145.86" cy="-353.02" rx="55.72" ry="58.88"/>
<text text-anchor="middle" x="145.86" y="-379.32" font-family="Times,serif" font-size="14.00">yeah</text>
<text text-anchor="middle" x="145.86" y="-364.32" font-family="Times,serif" font-size="14.00">&#45;&#45;&#45;&#45;&#45;&#45;&#45;&#45;&#45;&#45;&#45;&#45;&#45;</text>
<text text-anchor="middle" x="145.86" y="-349.32" font-family="Times,serif" font-size="14.00">putchar0=1</text>
<text text-anchor="middle" x="145.86" y="-334.32" font-family="Times,serif" font-size="14.00">putchar5=1</text>
<text text-anchor="middle" x="145.86" y="-319.32" font-family="Times,serif" font-size="14.00">wvalid=1</text>
</g>
<!-- d_w&#45;&gt;yeah -->
<g id="edge38" class="edge">
<title>d_w&#45;&gt;yeah</title>
<path fill="none" stroke="black" d="M145.05,-462.64C145.14,-450.91 145.25,-436.45 145.36,-421.94"/>
<polygon fill="black" stroke="black" points="148.86,-421.96 145.43,-411.93 141.86,-421.9 148.86,-421.96"/>
<text text-anchor="middle" x="173.86" y="-433.51" font-family="Times,serif" font-size="14.00">wready=1</text>
</g>
<!-- yeah_w -->
<g id="node27" class="node">
<title>yeah_w</title>
<ellipse fill="none" stroke="black" cx="151.86" cy="-216.46" rx="53.07" ry="26.74"/>
<text text-anchor="middle" x="151.86" y="-220.26" font-family="Times,serif" font-size="14.00">yeah_w</text>
<text text-anchor="middle" x="151.86" y="-205.26" font-family="Times,serif" font-size="14.00">&#45;&#45;&#45;&#45;&#45;&#45;&#45;&#45;&#45;&#45;&#45;&#45;&#45;</text>
</g>
<!-- yeah&#45;&gt;yeah_w -->
<g id="edge39" class="edge">
<title>yeah&#45;&gt;yeah_w</title>
<path fill="none" stroke="#c1b2ff" d="M148.44,-294.18C149.06,-280.38 149.7,-266.03 150.25,-253.54"/>
<polygon fill="#c1b2ff" stroke="#c1b2ff" points="153.75,-253.67 150.7,-243.53 146.76,-253.36 153.75,-253.67"/>
<text text-anchor="middle" x="156.36" y="-265.13" font-family="Times,serif" font-size="14.00">@</text>
</g>
<!-- yeah_w&#45;&gt;yeah_w -->
<g id="edge40" class="edge">
<title>yeah_w&#45;&gt;yeah_w</title>
<path fill="none" stroke="#c1b2ff" d="M201.65,-226.06C213.83,-225.35 222.89,-222.15 222.89,-216.46 222.89,-212.55 218.61,-209.82 211.97,-208.26"/>
<polygon fill="#c1b2ff" stroke="#c1b2ff" points="212.03,-204.74 201.65,-206.87 211.09,-211.67 212.03,-204.74"/>
<text text-anchor="middle" x="229.39" y="-212.76" font-family="Times,serif" font-size="14.00">@</text>
</g>
<!-- end -->
<g id="node28" class="node">
<title>end</title>
<ellipse fill="none" stroke="black" cx="207.86" cy="-69.3" rx="55.72" ry="69.09"/>
<text text-anchor="middle" x="207.86" y="-103.1" font-family="Times,serif" font-size="14.00">end</text>
<text text-anchor="middle" x="207.86" y="-88.1" font-family="Times,serif" font-size="14.00">&#45;&#45;&#45;&#45;&#45;&#45;&#45;&#45;&#45;&#45;&#45;&#45;&#45;</text>
<text text-anchor="middle" x="207.86" y="-73.1" font-family="Times,serif" font-size="14.00">putchar0=1</text>
<text text-anchor="middle" x="207.86" y="-58.1" font-family="Times,serif" font-size="14.00">putchar2=1</text>
<text text-anchor="middle" x="207.86" y="-43.1" font-family="Times,serif" font-size="14.00">putchar3=1</text>
<text text-anchor="middle" x="207.86" y="-28.1" font-family="Times,serif" font-size="14.00">wvalid=1</text>
</g>
<!-- yeah_w&#45;&gt;end -->
<g id="edge41" class="edge">
<title>yeah_w&#45;&gt;end</title>
<path fill="none" stroke="black" d="M161.74,-189.84C166.96,-176.31 173.65,-158.97 180.31,-141.71"/>
<polygon fill="black" stroke="black" points="183.66,-142.75 184,-132.16 177.13,-140.23 183.66,-142.75"/>
<text text-anchor="middle" x="201.86" y="-160.39" font-family="Times,serif" font-size="14.00">wready=1</text>
</g>
<!-- end&#45;&gt;IDLE0 -->
<g id="edge42" class="edge">
<title>end&#45;&gt;IDLE0</title>
<path fill="none" stroke="#c1b2ff" d="M240.27,-125.97C252.66,-152.23 263.86,-184.53 263.86,-215.46 263.86,-4081.59 263.86,-4081.59 263.86,-4081.59 263.86,-4107.71 249.6,-4133.41 235.34,-4152.57"/>
<polygon fill="#c1b2ff" stroke="#c1b2ff" points="232.45,-4150.59 229.06,-4160.62 237.97,-4154.89 232.45,-4150.59"/>
<text text-anchor="middle" x="270.36" y="-2106.04" font-family="Times,serif" font-size="14.00">@</text>
</g>
</g>
</svg>
