<?xml version="1.0" encoding="UTF-8" standalone="no"?>
<!DOCTYPE svg PUBLIC "-//W3C//DTD SVG 1.1//EN"
 "http://www.w3.org/Graphics/SVG/1.1/DTD/svg11.dtd">
<!-- Generated by graphviz version 2.43.20190912.0211 (20190912.0211)
 -->
<!-- Title: G Pages: 1 -->
<svg width="334pt" height="4220pt"
 viewBox="0.00 0.00 334.16 4220.20" xmlns="http://www.w3.org/2000/svg" xmlns:xlink="http://www.w3.org/1999/xlink">
<g id="graph0" class="graph" transform="scale(1 1) rotate(0) translate(4 4216.2)">
<title>G</title>
<polygon fill="white" stroke="transparent" points="-4,4 -4,-4216.2 330.16,-4216.2 330.16,4 -4,4"/>
<!-- IDLE0 -->
<g id="node1" class="node">
<title>IDLE0</title>
<ellipse fill="none" stroke="black" cx="240.12" cy="-4185.33" rx="53.07" ry="26.74"/>
<text text-anchor="middle" x="240.12" y="-4189.13" font-family="Times,serif" font-size="14.00">IDLE0</text>
<text text-anchor="middle" x="240.12" y="-4174.13" font-family="Times,serif" font-size="14.00">&#45;&#45;&#45;&#45;&#45;&#45;&#45;&#45;&#45;&#45;&#45;&#45;&#45;</text>
</g>
<!-- IDLE0&#45;&gt;IDLE0 -->
<g id="edge1" class="edge">
<title>IDLE0&#45;&gt;IDLE0</title>
<path fill="none" stroke="#c1b2ff" d="M289.91,-4194.93C302.09,-4194.22 311.16,-4191.02 311.16,-4185.33 311.16,-4181.42 306.87,-4178.69 300.24,-4177.13"/>
<polygon fill="#c1b2ff" stroke="#c1b2ff" points="300.29,-4173.61 289.91,-4175.73 299.35,-4180.54 300.29,-4173.61"/>
<text text-anchor="middle" x="318.66" y="-4181.63" font-family="Times,serif" font-size="14.00">@</text>
</g>
<!-- hello -->
<g id="node2" class="node">
<title>hello</title>
<ellipse fill="none" stroke="black" cx="151.12" cy="-4080.59" rx="53.07" ry="26.74"/>
<text text-anchor="middle" x="151.12" y="-4084.39" font-family="Times,serif" font-size="14.00">hello</text>
<text text-anchor="middle" x="151.12" y="-4069.39" font-family="Times,serif" font-size="14.00">&#45;&#45;&#45;&#45;&#45;&#45;&#45;&#45;&#45;&#45;&#45;&#45;&#45;</text>
</g>
<!-- IDLE0&#45;&gt;hello -->
<g id="edge2" class="edge">
<title>IDLE0&#45;&gt;hello</title>
<path fill="none" stroke="black" d="M198.96,-4167.98C186.45,-4161.18 173.74,-4152.1 165.12,-4140.46 160.15,-4133.74 156.91,-4125.5 154.81,-4117.35"/>
<polygon fill="black" stroke="black" points="158.24,-4116.62 152.78,-4107.54 151.38,-4118.04 158.24,-4116.62"/>
<text text-anchor="middle" x="195.62" y="-4129.26" font-family="Times,serif" font-size="14.00">cmd0=0</text>
</g>
<!-- echo -->
<g id="node3" class="node">
<title>echo</title>
<ellipse fill="none" stroke="black" cx="215.12" cy="-3813.43" rx="53.07" ry="37.45"/>
<text text-anchor="middle" x="215.12" y="-3824.73" font-family="Times,serif" font-size="14.00">echo</text>
<text text-anchor="middle" x="215.12" y="-3809.73" font-family="Times,serif" font-size="14.00">&#45;&#45;&#45;&#45;&#45;&#45;&#45;&#45;&#45;&#45;&#45;&#45;&#45;</text>
<text text-anchor="middle" x="215.12" y="-3794.73" font-family="Times,serif" font-size="14.00">echo=1</text>
</g>
<!-- hello&#45;&gt;echo -->
<g id="edge3" class="edge">
<title>hello&#45;&gt;echo</title>
<path fill="none" stroke="#c1b2ff" d="M163.29,-4053.95C165.79,-4048.05 168.23,-4041.74 170.12,-4035.72 188.67,-3976.74 201.45,-3906.44 208.52,-3861.15"/>
<polygon fill="#c1b2ff" stroke="#c1b2ff" points="212.02,-3861.46 210.07,-3851.04 205.1,-3860.4 212.02,-3861.46"/>
<text text-anchor="middle" x="208.62" y="-3964.52" font-family="Times,serif" font-size="14.00">@</text>
</g>
<!-- H -->
<g id="node4" class="node">
<title>H</title>
<ellipse fill="none" stroke="black" cx="72.12" cy="-3813.43" rx="72.25" ry="69.09"/>
<text text-anchor="middle" x="72.12" y="-3847.23" font-family="Times,serif" font-size="14.00">H</text>
<text text-anchor="middle" x="72.12" y="-3832.23" font-family="Times,serif" font-size="14.00">&#45;&#45;&#45;&#45;&#45;&#45;&#45;&#45;&#45;&#45;&#45;&#45;&#45;</text>
<text text-anchor="middle" x="72.12" y="-3817.23" font-family="Times,serif" font-size="14.00">putchar3=1</text>
<text text-anchor="middle" x="72.12" y="-3802.23" font-family="Times,serif" font-size="14.00">putchar6=1</text>
<text text-anchor="middle" x="72.12" y="-3787.23" font-family="Times,serif" font-size="14.00">rready=1</text>
<text text-anchor="middle" x="72.12" y="-3772.23" font-family="Times,serif" font-size="14.00">wvalid=1</text>
</g>
<!-- hello&#45;&gt;H -->
<g id="edge4" class="edge">
<title>hello&#45;&gt;H</title>
<path fill="none" stroke="black" d="M110.64,-4063.13C99.13,-4056.39 87.89,-4047.38 81.12,-4035.72 56.19,-3992.74 54.13,-3936.77 58.21,-3891.86"/>
<polygon fill="black" stroke="black" points="61.7,-3892.18 59.24,-3881.88 54.73,-3891.47 61.7,-3892.18"/>
<text text-anchor="middle" x="123.62" y="-4024.52" font-family="Times,serif" font-size="14.00">getchar0=0</text>
<text text-anchor="middle" x="123.62" y="-4009.52" font-family="Times,serif" font-size="14.00">getchar1=0</text>
<text text-anchor="middle" x="123.62" y="-3994.52" font-family="Times,serif" font-size="14.00">getchar2=0</text>
<text text-anchor="middle" x="123.62" y="-3979.52" font-family="Times,serif" font-size="14.00">getchar3=0</text>
<text text-anchor="middle" x="123.62" y="-3964.52" font-family="Times,serif" font-size="14.00">getchar4=1</text>
<text text-anchor="middle" x="123.62" y="-3949.52" font-family="Times,serif" font-size="14.00">getchar5=1</text>
<text text-anchor="middle" x="123.62" y="-3934.52" font-family="Times,serif" font-size="14.00">getchar6=0</text>
<text text-anchor="middle" x="123.62" y="-3919.52" font-family="Times,serif" font-size="14.00">getchar7=0</text>
<text text-anchor="middle" x="123.62" y="-3904.52" font-family="Times,serif" font-size="14.00">wready=1</text>
</g>
<!-- echo&#45;&gt;IDLE0 -->
<g id="edge6" class="edge">
<title>echo&#45;&gt;IDLE0</title>
<path fill="none" stroke="#c1b2ff" d="M217.6,-3851.05C222.4,-3922.02 232.91,-4077.51 237.68,-4148.14"/>
<polygon fill="#c1b2ff" stroke="#c1b2ff" points="234.2,-4148.58 238.37,-4158.32 241.18,-4148.11 234.2,-4148.58"/>
<text text-anchor="middle" x="242.62" y="-4076.89" font-family="Times,serif" font-size="14.00">@</text>
</g>
<!-- H_w -->
<g id="node5" class="node">
<title>H_w</title>
<ellipse fill="none" stroke="black" cx="73.12" cy="-3666.26" rx="53.07" ry="26.74"/>
<text text-anchor="middle" x="73.12" y="-3670.06" font-family="Times,serif" font-size="14.00">H_w</text>
<text text-anchor="middle" x="73.12" y="-3655.06" font-family="Times,serif" font-size="14.00">&#45;&#45;&#45;&#45;&#45;&#45;&#45;&#45;&#45;&#45;&#45;&#45;&#45;</text>
</g>
<!-- H&#45;&gt;H_w -->
<g id="edge5" class="edge">
<title>H&#45;&gt;H_w</title>
<path fill="none" stroke="#c1b2ff" d="M72.6,-3744.09C72.69,-3730.1 72.79,-3715.9 72.87,-3703.57"/>
<polygon fill="#c1b2ff" stroke="#c1b2ff" points="76.38,-3703.3 72.95,-3693.28 69.38,-3703.25 76.38,-3703.3"/>
<text text-anchor="middle" x="80.62" y="-3714.93" font-family="Times,serif" font-size="14.00">@</text>
</g>
<!-- H_w&#45;&gt;H_w -->
<g id="edge7" class="edge">
<title>H_w&#45;&gt;H_w</title>
<path fill="none" stroke="#c1b2ff" d="M122.91,-3675.86C135.09,-3675.15 144.16,-3671.95 144.16,-3666.26 144.16,-3662.35 139.87,-3659.61 133.24,-3658.06"/>
<polygon fill="#c1b2ff" stroke="#c1b2ff" points="133.29,-3654.53 122.91,-3656.66 132.35,-3661.47 133.29,-3654.53"/>
<text text-anchor="middle" x="151.66" y="-3662.56" font-family="Times,serif" font-size="14.00">@</text>
</g>
<!-- e -->
<g id="node6" class="node">
<title>e</title>
<ellipse fill="none" stroke="black" cx="73.12" cy="-3508.49" rx="72.25" ry="79.81"/>
<text text-anchor="middle" x="73.12" y="-3549.79" font-family="Times,serif" font-size="14.00">e</text>
<text text-anchor="middle" x="73.12" y="-3534.79" font-family="Times,serif" font-size="14.00">&#45;&#45;&#45;&#45;&#45;&#45;&#45;&#45;&#45;&#45;&#45;&#45;&#45;</text>
<text text-anchor="middle" x="73.12" y="-3519.79" font-family="Times,serif" font-size="14.00">putchar0=1</text>
<text text-anchor="middle" x="73.12" y="-3504.79" font-family="Times,serif" font-size="14.00">putchar2=1</text>
<text text-anchor="middle" x="73.12" y="-3489.79" font-family="Times,serif" font-size="14.00">putchar5=1</text>
<text text-anchor="middle" x="73.12" y="-3474.79" font-family="Times,serif" font-size="14.00">putchar6=1</text>
<text text-anchor="middle" x="73.12" y="-3459.79" font-family="Times,serif" font-size="14.00">wvalid=1</text>
</g>
<!-- H_w&#45;&gt;e -->
<g id="edge8" class="edge">
<title>H_w&#45;&gt;e</title>
<path fill="none" stroke="black" d="M73.12,-3639.19C73.12,-3627.72 73.12,-3613.5 73.12,-3598.73"/>
<polygon fill="black" stroke="black" points="76.62,-3598.44 73.12,-3588.44 69.62,-3598.44 76.62,-3598.44"/>
<text text-anchor="middle" x="110.12" y="-3610.19" font-family="Times,serif" font-size="14.00">wready=1</text>
</g>
<!-- e_w -->
<g id="node7" class="node">
<title>e_w</title>
<ellipse fill="none" stroke="black" cx="73.12" cy="-3350.71" rx="53.07" ry="26.74"/>
<text text-anchor="middle" x="73.12" y="-3354.51" font-family="Times,serif" font-size="14.00">e_w</text>
<text text-anchor="middle" x="73.12" y="-3339.51" font-family="Times,serif" font-size="14.00">&#45;&#45;&#45;&#45;&#45;&#45;&#45;&#45;&#45;&#45;&#45;&#45;&#45;</text>
</g>
<!-- e&#45;&gt;e_w -->
<g id="edge9" class="edge">
<title>e&#45;&gt;e_w</title>
<path fill="none" stroke="#c1b2ff" d="M73.12,-3428.23C73.12,-3414.05 73.12,-3399.92 73.12,-3387.74"/>
<polygon fill="#c1b2ff" stroke="#c1b2ff" points="76.62,-3387.59 73.12,-3377.59 69.62,-3387.59 76.62,-3387.59"/>
<text text-anchor="middle" x="80.62" y="-3399.38" font-family="Times,serif" font-size="14.00">@</text>
</g>
<!-- e_w&#45;&gt;e_w -->
<g id="edge10" class="edge">
<title>e_w&#45;&gt;e_w</title>
<path fill="none" stroke="#c1b2ff" d="M122.91,-3360.31C135.09,-3359.6 144.16,-3356.4 144.16,-3350.71 144.16,-3346.8 139.87,-3344.07 133.24,-3342.51"/>
<polygon fill="#c1b2ff" stroke="#c1b2ff" points="133.29,-3338.99 122.91,-3341.11 132.35,-3345.92 133.29,-3338.99"/>
<text text-anchor="middle" x="151.66" y="-3347.01" font-family="Times,serif" font-size="14.00">@</text>
</g>
<!-- l0 -->
<g id="node8" class="node">
<title>l0</title>
<ellipse fill="none" stroke="black" cx="73.12" cy="-3192.94" rx="72.25" ry="79.81"/>
<text text-anchor="middle" x="73.12" y="-3234.24" font-family="Times,serif" font-size="14.00">l0</text>
<text text-anchor="middle" x="73.12" y="-3219.24" font-family="Times,serif" font-size="14.00">&#45;&#45;&#45;&#45;&#45;&#45;&#45;&#45;&#45;&#45;&#45;&#45;&#45;</text>
<text text-anchor="middle" x="73.12" y="-3204.24" font-family="Times,serif" font-size="14.00">putchar2=1</text>
<text text-anchor="middle" x="73.12" y="-3189.24" font-family="Times,serif" font-size="14.00">putchar3=1</text>
<text text-anchor="middle" x="73.12" y="-3174.24" font-family="Times,serif" font-size="14.00">putchar5=1</text>
<text text-anchor="middle" x="73.12" y="-3159.24" font-family="Times,serif" font-size="14.00">putchar6=1</text>
<text text-anchor="middle" x="73.12" y="-3144.24" font-family="Times,serif" font-size="14.00">wvalid=1</text>
</g>
<!-- e_w&#45;&gt;l0 -->
<g id="edge11" class="edge">
<title>e_w&#45;&gt;l0</title>
<path fill="none" stroke="black" d="M73.12,-3323.64C73.12,-3312.17 73.12,-3297.95 73.12,-3283.18"/>
<polygon fill="black" stroke="black" points="76.62,-3282.89 73.12,-3272.89 69.62,-3282.89 76.62,-3282.89"/>
<text text-anchor="middle" x="110.12" y="-3294.64" font-family="Times,serif" font-size="14.00">wready=1</text>
</g>
<!-- l0_w -->
<g id="node9" class="node">
<title>l0_w</title>
<ellipse fill="none" stroke="black" cx="73.12" cy="-3035.17" rx="53.07" ry="26.74"/>
<text text-anchor="middle" x="73.12" y="-3038.97" font-family="Times,serif" font-size="14.00">l0_w</text>
<text text-anchor="middle" x="73.12" y="-3023.97" font-family="Times,serif" font-size="14.00">&#45;&#45;&#45;&#45;&#45;&#45;&#45;&#45;&#45;&#45;&#45;&#45;&#45;</text>
</g>
<!-- l0&#45;&gt;l0_w -->
<g id="edge12" class="edge">
<title>l0&#45;&gt;l0_w</title>
<path fill="none" stroke="#c1b2ff" d="M73.12,-3112.68C73.12,-3098.5 73.12,-3084.38 73.12,-3072.2"/>
<polygon fill="#c1b2ff" stroke="#c1b2ff" points="76.62,-3072.04 73.12,-3062.04 69.62,-3072.04 76.62,-3072.04"/>
<text text-anchor="middle" x="80.62" y="-3083.84" font-family="Times,serif" font-size="14.00">@</text>
</g>
<!-- l0_w&#45;&gt;l0_w -->
<g id="edge13" class="edge">
<title>l0_w&#45;&gt;l0_w</title>
<path fill="none" stroke="#c1b2ff" d="M122.91,-3044.76C135.09,-3044.05 144.16,-3040.85 144.16,-3035.17 144.16,-3031.26 139.87,-3028.52 133.24,-3026.96"/>
<polygon fill="#c1b2ff" stroke="#c1b2ff" points="133.29,-3023.44 122.91,-3025.57 132.35,-3030.38 133.29,-3023.44"/>
<text text-anchor="middle" x="151.66" y="-3031.47" font-family="Times,serif" font-size="14.00">@</text>
</g>
<!-- l1 -->
<g id="node10" class="node">
<title>l1</title>
<ellipse fill="none" stroke="black" cx="73.12" cy="-2877.39" rx="72.25" ry="79.81"/>
<text text-anchor="middle" x="73.12" y="-2918.69" font-family="Times,serif" font-size="14.00">l1</text>
<text text-anchor="middle" x="73.12" y="-2903.69" font-family="Times,serif" font-size="14.00">&#45;&#45;&#45;&#45;&#45;&#45;&#45;&#45;&#45;&#45;&#45;&#45;&#45;</text>
<text text-anchor="middle" x="73.12" y="-2888.69" font-family="Times,serif" font-size="14.00">putchar2=1</text>
<text text-anchor="middle" x="73.12" y="-2873.69" font-family="Times,serif" font-size="14.00">putchar3=1</text>
<text text-anchor="middle" x="73.12" y="-2858.69" font-family="Times,serif" font-size="14.00">putchar5=1</text>
<text text-anchor="middle" x="73.12" y="-2843.69" font-family="Times,serif" font-size="14.00">putchar6=1</text>
<text text-anchor="middle" x="73.12" y="-2828.69" font-family="Times,serif" font-size="14.00">wvalid=1</text>
</g>
<!-- l0_w&#45;&gt;l1 -->
<g id="edge14" class="edge">
<title>l0_w&#45;&gt;l1</title>
<path fill="none" stroke="black" d="M73.12,-3008.09C73.12,-2996.62 73.12,-2982.41 73.12,-2967.64"/>
<polygon fill="black" stroke="black" points="76.62,-2967.35 73.12,-2957.35 69.62,-2967.35 76.62,-2967.35"/>
<text text-anchor="middle" x="110.12" y="-2979.1" font-family="Times,serif" font-size="14.00">wready=1</text>
</g>
<!-- l1_w -->
<g id="node11" class="node">
<title>l1_w</title>
<ellipse fill="none" stroke="black" cx="73.12" cy="-2719.62" rx="53.07" ry="26.74"/>
<text text-anchor="middle" x="73.12" y="-2723.42" font-family="Times,serif" font-size="14.00">l1_w</text>
<text text-anchor="middle" x="73.12" y="-2708.42" font-family="Times,serif" font-size="14.00">&#45;&#45;&#45;&#45;&#45;&#45;&#45;&#45;&#45;&#45;&#45;&#45;&#45;</text>
</g>
<!-- l1&#45;&gt;l1_w -->
<g id="edge15" class="edge">
<title>l1&#45;&gt;l1_w</title>
<path fill="none" stroke="#c1b2ff" d="M73.12,-2797.14C73.12,-2782.95 73.12,-2768.83 73.12,-2756.65"/>
<polygon fill="#c1b2ff" stroke="#c1b2ff" points="76.62,-2756.49 73.12,-2746.49 69.62,-2756.49 76.62,-2756.49"/>
<text text-anchor="middle" x="80.62" y="-2768.29" font-family="Times,serif" font-size="14.00">@</text>
</g>
<!-- l1_w&#45;&gt;l1_w -->
<g id="edge16" class="edge">
<title>l1_w&#45;&gt;l1_w</title>
<path fill="none" stroke="#c1b2ff" d="M122.91,-2729.22C135.09,-2728.51 144.16,-2725.31 144.16,-2719.62 144.16,-2715.71 139.87,-2712.98 133.24,-2711.42"/>
<polygon fill="#c1b2ff" stroke="#c1b2ff" points="133.29,-2707.89 122.91,-2710.02 132.35,-2714.83 133.29,-2707.89"/>
<text text-anchor="middle" x="151.66" y="-2715.92" font-family="Times,serif" font-size="14.00">@</text>
</g>
<!-- o0 -->
<g id="node12" class="node">
<title>o0</title>
<ellipse fill="none" stroke="black" cx="74.12" cy="-2540.63" rx="72.25" ry="101.23"/>
<text text-anchor="middle" x="74.12" y="-2596.93" font-family="Times,serif" font-size="14.00">o0</text>
<text text-anchor="middle" x="74.12" y="-2581.93" font-family="Times,serif" font-size="14.00">&#45;&#45;&#45;&#45;&#45;&#45;&#45;&#45;&#45;&#45;&#45;&#45;&#45;</text>
<text text-anchor="middle" x="74.12" y="-2566.93" font-family="Times,serif" font-size="14.00">putchar0=1</text>
<text text-anchor="middle" x="74.12" y="-2551.93" font-family="Times,serif" font-size="14.00">putchar1=1</text>
<text text-anchor="middle" x="74.12" y="-2536.93" font-family="Times,serif" font-size="14.00">putchar2=1</text>
<text text-anchor="middle" x="74.12" y="-2521.93" font-family="Times,serif" font-size="14.00">putchar3=1</text>
<text text-anchor="middle" x="74.12" y="-2506.93" font-family="Times,serif" font-size="14.00">putchar5=1</text>
<text text-anchor="middle" x="74.12" y="-2491.93" font-family="Times,serif" font-size="14.00">putchar6=1</text>
<text text-anchor="middle" x="74.12" y="-2476.93" font-family="Times,serif" font-size="14.00">wvalid=1</text>
</g>
<!-- l1_w&#45;&gt;o0 -->
<g id="edge17" class="edge">
<title>l1_w&#45;&gt;o0</title>
<path fill="none" stroke="black" d="M73.27,-2692.5C73.34,-2681.25 73.42,-2667.27 73.5,-2652.38"/>
<polygon fill="black" stroke="black" points="77,-2651.98 73.56,-2641.96 70,-2651.94 77,-2651.98"/>
<text text-anchor="middle" x="111.12" y="-2663.55" font-family="Times,serif" font-size="14.00">wready=1</text>
</g>
<!-- o0_w -->
<g id="node13" class="node">
<title>o0_w</title>
<ellipse fill="none" stroke="black" cx="79.12" cy="-2361.65" rx="53.07" ry="26.74"/>
<text text-anchor="middle" x="79.12" y="-2365.45" font-family="Times,serif" font-size="14.00">o0_w</text>
<text text-anchor="middle" x="79.12" y="-2350.45" font-family="Times,serif" font-size="14.00">&#45;&#45;&#45;&#45;&#45;&#45;&#45;&#45;&#45;&#45;&#45;&#45;&#45;</text>
</g>
<!-- o0&#45;&gt;o0_w -->
<g id="edge18" class="edge">
<title>o0&#45;&gt;o0_w</title>
<path fill="none" stroke="#c1b2ff" d="M76.95,-2439.5C77.36,-2424.99 77.76,-2410.89 78.1,-2398.82"/>
<polygon fill="#c1b2ff" stroke="#c1b2ff" points="81.6,-2398.87 78.39,-2388.78 74.61,-2398.68 81.6,-2398.87"/>
<text text-anchor="middle" x="85.62" y="-2410.32" font-family="Times,serif" font-size="14.00">@</text>
</g>
<!-- o0_w&#45;&gt;o0_w -->
<g id="edge19" class="edge">
<title>o0_w&#45;&gt;o0_w</title>
<path fill="none" stroke="#c1b2ff" d="M128.91,-2371.24C141.09,-2370.53 150.16,-2367.33 150.16,-2361.65 150.16,-2357.74 145.87,-2355 139.24,-2353.44"/>
<polygon fill="#c1b2ff" stroke="#c1b2ff" points="139.29,-2349.92 128.91,-2352.05 138.35,-2356.86 139.29,-2349.92"/>
<text text-anchor="middle" x="157.66" y="-2357.95" font-family="Times,serif" font-size="14.00">@</text>
</g>
<!-- space -->
<g id="node14" class="node">
<title>space</title>
<ellipse fill="none" stroke="black" cx="98.12" cy="-2235.69" rx="72.25" ry="48.17"/>
<text text-anchor="middle" x="98.12" y="-2254.49" font-family="Times,serif" font-size="14.00">space</text>
<text text-anchor="middle" x="98.12" y="-2239.49" font-family="Times,serif" font-size="14.00">&#45;&#45;&#45;&#45;&#45;&#45;&#45;&#45;&#45;&#45;&#45;&#45;&#45;</text>
<text text-anchor="middle" x="98.12" y="-2224.49" font-family="Times,serif" font-size="14.00">putchar5=1</text>
<text text-anchor="middle" x="98.12" y="-2209.49" font-family="Times,serif" font-size="14.00">wvalid=1</text>
</g>
<!-- o0_w&#45;&gt;space -->
<g id="edge20" class="edge">
<title>o0_w&#45;&gt;space</title>
<path fill="none" stroke="black" d="M83.11,-2334.66C84.93,-2322.78 87.16,-2308.2 89.35,-2293.95"/>
<polygon fill="black" stroke="black" points="92.87,-2294.09 90.92,-2283.68 85.95,-2293.03 92.87,-2294.09"/>
<text text-anchor="middle" x="125.12" y="-2305.58" font-family="Times,serif" font-size="14.00">wready=1</text>
</g>
<!-- space_w -->
<g id="node15" class="node">
<title>space_w</title>
<ellipse fill="none" stroke="black" cx="173.12" cy="-2109.74" rx="53.98" ry="26.74"/>
<text text-anchor="middle" x="173.12" y="-2113.54" font-family="Times,serif" font-size="14.00">space_w</text>
<text text-anchor="middle" x="173.12" y="-2098.54" font-family="Times,serif" font-size="14.00">&#45;&#45;&#45;&#45;&#45;&#45;&#45;&#45;&#45;&#45;&#45;&#45;&#45;</text>
</g>
<!-- space&#45;&gt;space_w -->
<g id="edge21" class="edge">
<title>space&#45;&gt;space_w</title>
<path fill="none" stroke="#c1b2ff" d="M124.78,-2190.64C133.9,-2175.57 143.95,-2158.96 152.52,-2144.8"/>
<polygon fill="#c1b2ff" stroke="#c1b2ff" points="155.73,-2146.26 157.91,-2135.89 149.74,-2142.63 155.73,-2146.26"/>
<text text-anchor="middle" x="152.62" y="-2158.41" font-family="Times,serif" font-size="14.00">@</text>
</g>
<!-- space_w&#45;&gt;space_w -->
<g id="edge22" class="edge">
<title>space_w&#45;&gt;space_w</title>
<path fill="none" stroke="#c1b2ff" d="M223.41,-2119.34C235.71,-2118.63 244.87,-2115.43 244.87,-2109.74 244.87,-2105.74 240.34,-2102.97 233.38,-2101.43"/>
<polygon fill="#c1b2ff" stroke="#c1b2ff" points="233.78,-2097.96 223.41,-2100.14 232.88,-2104.9 233.78,-2097.96"/>
<text text-anchor="middle" x="252.37" y="-2106.04" font-family="Times,serif" font-size="14.00">@</text>
</g>
<!-- W -->
<g id="node16" class="node">
<title>W</title>
<ellipse fill="none" stroke="black" cx="173.12" cy="-1941.36" rx="72.25" ry="90.52"/>
<text text-anchor="middle" x="173.12" y="-1990.16" font-family="Times,serif" font-size="14.00">W</text>
<text text-anchor="middle" x="173.12" y="-1975.16" font-family="Times,serif" font-size="14.00">&#45;&#45;&#45;&#45;&#45;&#45;&#45;&#45;&#45;&#45;&#45;&#45;&#45;</text>
<text text-anchor="middle" x="173.12" y="-1960.16" font-family="Times,serif" font-size="14.00">putchar0=1</text>
<text text-anchor="middle" x="173.12" y="-1945.16" font-family="Times,serif" font-size="14.00">putchar1=1</text>
<text text-anchor="middle" x="173.12" y="-1930.16" font-family="Times,serif" font-size="14.00">putchar2=1</text>
<text text-anchor="middle" x="173.12" y="-1915.16" font-family="Times,serif" font-size="14.00">putchar4=1</text>
<text text-anchor="middle" x="173.12" y="-1900.16" font-family="Times,serif" font-size="14.00">putchar6=1</text>
<text text-anchor="middle" x="173.12" y="-1885.16" font-family="Times,serif" font-size="14.00">wvalid=1</text>
</g>
<!-- space_w&#45;&gt;W -->
<g id="edge23" class="edge">
<title>space_w&#45;&gt;W</title>
<path fill="none" stroke="black" d="M173.12,-2082.74C173.12,-2071.38 173.12,-2057.26 173.12,-2042.39"/>
<polygon fill="black" stroke="black" points="176.62,-2042 173.12,-2032 169.62,-2042 176.62,-2042"/>
<text text-anchor="middle" x="210.12" y="-2053.67" font-family="Times,serif" font-size="14.00">wready=1</text>
</g>
<!-- W_w -->
<g id="node17" class="node">
<title>W_w</title>
<ellipse fill="none" stroke="black" cx="173.12" cy="-1772.98" rx="53.07" ry="26.74"/>
<text text-anchor="middle" x="173.12" y="-1776.78" font-family="Times,serif" font-size="14.00">W_w</text>
<text text-anchor="middle" x="173.12" y="-1761.78" font-family="Times,serif" font-size="14.00">&#45;&#45;&#45;&#45;&#45;&#45;&#45;&#45;&#45;&#45;&#45;&#45;&#45;</text>
</g>
<!-- W&#45;&gt;W_w -->
<g id="edge24" class="edge">
<title>W&#45;&gt;W_w</title>
<path fill="none" stroke="#c1b2ff" d="M173.12,-1850.84C173.12,-1836.44 173.12,-1822.3 173.12,-1810.15"/>
<polygon fill="#c1b2ff" stroke="#c1b2ff" points="176.62,-1810.03 173.12,-1800.03 169.62,-1810.03 176.62,-1810.03"/>
<text text-anchor="middle" x="180.62" y="-1821.65" font-family="Times,serif" font-size="14.00">@</text>
</g>
<!-- W_w&#45;&gt;W_w -->
<g id="edge25" class="edge">
<title>W_w&#45;&gt;W_w</title>
<path fill="none" stroke="#c1b2ff" d="M222.91,-1782.58C235.09,-1781.87 244.16,-1778.67 244.16,-1772.98 244.16,-1769.07 239.87,-1766.34 233.24,-1764.78"/>
<polygon fill="#c1b2ff" stroke="#c1b2ff" points="233.29,-1761.25 222.91,-1763.38 232.35,-1768.19 233.29,-1761.25"/>
<text text-anchor="middle" x="251.66" y="-1769.28" font-family="Times,serif" font-size="14.00">@</text>
</g>
<!-- o1 -->
<g id="node18" class="node">
<title>o1</title>
<ellipse fill="none" stroke="black" cx="174.12" cy="-1593.99" rx="72.25" ry="101.23"/>
<text text-anchor="middle" x="174.12" y="-1650.29" font-family="Times,serif" font-size="14.00">o1</text>
<text text-anchor="middle" x="174.12" y="-1635.29" font-family="Times,serif" font-size="14.00">&#45;&#45;&#45;&#45;&#45;&#45;&#45;&#45;&#45;&#45;&#45;&#45;&#45;</text>
<text text-anchor="middle" x="174.12" y="-1620.29" font-family="Times,serif" font-size="14.00">putchar0=1</text>
<text text-anchor="middle" x="174.12" y="-1605.29" font-family="Times,serif" font-size="14.00">putchar1=1</text>
<text text-anchor="middle" x="174.12" y="-1590.29" font-family="Times,serif" font-size="14.00">putchar2=1</text>
<text text-anchor="middle" x="174.12" y="-1575.29" font-family="Times,serif" font-size="14.00">putchar3=1</text>
<text text-anchor="middle" x="174.12" y="-1560.29" font-family="Times,serif" font-size="14.00">putchar5=1</text>
<text text-anchor="middle" x="174.12" y="-1545.29" font-family="Times,serif" font-size="14.00">putchar6=1</text>
<text text-anchor="middle" x="174.12" y="-1530.29" font-family="Times,serif" font-size="14.00">wvalid=1</text>
</g>
<!-- W_w&#45;&gt;o1 -->
<g id="edge26" class="edge">
<title>W_w&#45;&gt;o1</title>
<path fill="none" stroke="black" d="M173.27,-1745.87C173.34,-1734.62 173.42,-1720.63 173.5,-1705.74"/>
<polygon fill="black" stroke="black" points="177,-1705.34 173.56,-1695.32 170,-1705.3 177,-1705.34"/>
<text text-anchor="middle" x="211.12" y="-1716.91" font-family="Times,serif" font-size="14.00">wready=1</text>
</g>
<!-- o1_w -->
<g id="node19" class="node">
<title>o1_w</title>
<ellipse fill="none" stroke="black" cx="174.12" cy="-1415.01" rx="53.07" ry="26.74"/>
<text text-anchor="middle" x="174.12" y="-1418.81" font-family="Times,serif" font-size="14.00">o1_w</text>
<text text-anchor="middle" x="174.12" y="-1403.81" font-family="Times,serif" font-size="14.00">&#45;&#45;&#45;&#45;&#45;&#45;&#45;&#45;&#45;&#45;&#45;&#45;&#45;</text>
</g>
<!-- o1&#45;&gt;o1_w -->
<g id="edge27" class="edge">
<title>o1&#45;&gt;o1_w</title>
<path fill="none" stroke="#c1b2ff" d="M174.12,-1492.86C174.12,-1478.35 174.12,-1464.25 174.12,-1452.18"/>
<polygon fill="#c1b2ff" stroke="#c1b2ff" points="177.62,-1452.14 174.12,-1442.14 170.62,-1452.14 177.62,-1452.14"/>
<text text-anchor="middle" x="181.62" y="-1463.68" font-family="Times,serif" font-size="14.00">@</text>
</g>
<!-- o1_w&#45;&gt;o1_w -->
<g id="edge28" class="edge">
<title>o1_w&#45;&gt;o1_w</title>
<path fill="none" stroke="#c1b2ff" d="M223.91,-1424.61C236.09,-1423.9 245.16,-1420.7 245.16,-1415.01 245.16,-1411.1 240.87,-1408.36 234.24,-1406.81"/>
<polygon fill="#c1b2ff" stroke="#c1b2ff" points="234.29,-1403.28 223.91,-1405.41 233.35,-1410.22 234.29,-1403.28"/>
<text text-anchor="middle" x="252.66" y="-1411.31" font-family="Times,serif" font-size="14.00">@</text>
</g>
<!-- r -->
<g id="node20" class="node">
<title>r</title>
<ellipse fill="none" stroke="black" cx="174.12" cy="-1257.24" rx="72.25" ry="79.81"/>
<text text-anchor="middle" x="174.12" y="-1298.54" font-family="Times,serif" font-size="14.00">r</text>
<text text-anchor="middle" x="174.12" y="-1283.54" font-family="Times,serif" font-size="14.00">&#45;&#45;&#45;&#45;&#45;&#45;&#45;&#45;&#45;&#45;&#45;&#45;&#45;</text>
<text text-anchor="middle" x="174.12" y="-1268.54" font-family="Times,serif" font-size="14.00">putchar1=1</text>
<text text-anchor="middle" x="174.12" y="-1253.54" font-family="Times,serif" font-size="14.00">putchar4=1</text>
<text text-anchor="middle" x="174.12" y="-1238.54" font-family="Times,serif" font-size="14.00">putchar5=1</text>
<text text-anchor="middle" x="174.12" y="-1223.54" font-family="Times,serif" font-size="14.00">putchar6=1</text>
<text text-anchor="middle" x="174.12" y="-1208.54" font-family="Times,serif" font-size="14.00">wvalid=1</text>
</g>
<!-- o1_w&#45;&gt;r -->
<g id="edge29" class="edge">
<title>o1_w&#45;&gt;r</title>
<path fill="none" stroke="black" d="M174.12,-1387.94C174.12,-1376.46 174.12,-1362.25 174.12,-1347.48"/>
<polygon fill="black" stroke="black" points="177.62,-1347.19 174.12,-1337.19 170.62,-1347.19 177.62,-1347.19"/>
<text text-anchor="middle" x="211.12" y="-1358.94" font-family="Times,serif" font-size="14.00">wready=1</text>
</g>
<!-- r_w -->
<g id="node21" class="node">
<title>r_w</title>
<ellipse fill="none" stroke="black" cx="174.12" cy="-1099.46" rx="53.07" ry="26.74"/>
<text text-anchor="middle" x="174.12" y="-1103.26" font-family="Times,serif" font-size="14.00">r_w</text>
<text text-anchor="middle" x="174.12" y="-1088.26" font-family="Times,serif" font-size="14.00">&#45;&#45;&#45;&#45;&#45;&#45;&#45;&#45;&#45;&#45;&#45;&#45;&#45;</text>
</g>
<!-- r&#45;&gt;r_w -->
<g id="edge30" class="edge">
<title>r&#45;&gt;r_w</title>
<path fill="none" stroke="#c1b2ff" d="M174.12,-1176.98C174.12,-1162.8 174.12,-1148.67 174.12,-1136.49"/>
<polygon fill="#c1b2ff" stroke="#c1b2ff" points="177.62,-1136.34 174.12,-1126.34 170.62,-1136.34 177.62,-1136.34"/>
<text text-anchor="middle" x="181.62" y="-1148.13" font-family="Times,serif" font-size="14.00">@</text>
</g>
<!-- r_w&#45;&gt;r_w -->
<g id="edge31" class="edge">
<title>r_w&#45;&gt;r_w</title>
<path fill="none" stroke="#c1b2ff" d="M223.91,-1109.06C236.09,-1108.35 245.16,-1105.15 245.16,-1099.46 245.16,-1095.55 240.87,-1092.82 234.24,-1091.26"/>
<polygon fill="#c1b2ff" stroke="#c1b2ff" points="234.29,-1087.74 223.91,-1089.86 233.35,-1094.67 234.29,-1087.74"/>
<text text-anchor="middle" x="252.66" y="-1095.76" font-family="Times,serif" font-size="14.00">@</text>
</g>
<!-- l2 -->
<g id="node22" class="node">
<title>l2</title>
<ellipse fill="none" stroke="black" cx="174.12" cy="-941.69" rx="72.25" ry="79.81"/>
<text text-anchor="middle" x="174.12" y="-982.99" font-family="Times,serif" font-size="14.00">l2</text>
<text text-anchor="middle" x="174.12" y="-967.99" font-family="Times,serif" font-size="14.00">&#45;&#45;&#45;&#45;&#45;&#45;&#45;&#45;&#45;&#45;&#45;&#45;&#45;</text>
<text text-anchor="middle" x="174.12" y="-952.99" font-family="Times,serif" font-size="14.00">putchar2=1</text>
<text text-anchor="middle" x="174.12" y="-937.99" font-family="Times,serif" font-size="14.00">putchar3=1</text>
<text text-anchor="middle" x="174.12" y="-922.99" font-family="Times,serif" font-size="14.00">putchar5=1</text>
<text text-anchor="middle" x="174.12" y="-907.99" font-family="Times,serif" font-size="14.00">putchar6=1</text>
<text text-anchor="middle" x="174.12" y="-892.99" font-family="Times,serif" font-size="14.00">wvalid=1</text>
</g>
<!-- r_w&#45;&gt;l2 -->
<g id="edge32" class="edge">
<title>r_w&#45;&gt;l2</title>
<path fill="none" stroke="black" d="M174.12,-1072.39C174.12,-1060.92 174.12,-1046.7 174.12,-1031.93"/>
<polygon fill="black" stroke="black" points="177.62,-1031.64 174.12,-1021.64 170.62,-1031.64 177.62,-1031.64"/>
<text text-anchor="middle" x="211.12" y="-1043.39" font-family="Times,serif" font-size="14.00">wready=1</text>
</g>
<!-- l2_w -->
<g id="node23" class="node">
<title>l2_w</title>
<ellipse fill="none" stroke="black" cx="174.12" cy="-783.92" rx="53.07" ry="26.74"/>
<text text-anchor="middle" x="174.12" y="-787.72" font-family="Times,serif" font-size="14.00">l2_w</text>
<text text-anchor="middle" x="174.12" y="-772.72" font-family="Times,serif" font-size="14.00">&#45;&#45;&#45;&#45;&#45;&#45;&#45;&#45;&#45;&#45;&#45;&#45;&#45;</text>
</g>
<!-- l2&#45;&gt;l2_w -->
<g id="edge33" class="edge">
<title>l2&#45;&gt;l2_w</title>
<path fill="none" stroke="#c1b2ff" d="M174.12,-861.43C174.12,-847.25 174.12,-833.13 174.12,-820.95"/>
<polygon fill="#c1b2ff" stroke="#c1b2ff" points="177.62,-820.79 174.12,-810.79 170.62,-820.79 177.62,-820.79"/>
<text text-anchor="middle" x="181.62" y="-832.59" font-family="Times,serif" font-size="14.00">@</text>
</g>
<!-- l2_w&#45;&gt;l2_w -->
<g id="edge34" class="edge">
<title>l2_w&#45;&gt;l2_w</title>
<path fill="none" stroke="#c1b2ff" d="M223.91,-793.51C236.09,-792.8 245.16,-789.6 245.16,-783.92 245.16,-780.01 240.87,-777.27 234.24,-775.71"/>
<polygon fill="#c1b2ff" stroke="#c1b2ff" points="234.29,-772.19 223.91,-774.32 233.35,-779.13 234.29,-772.19"/>
<text text-anchor="middle" x="252.66" y="-780.22" font-family="Times,serif" font-size="14.00">@</text>
</g>
<!-- d -->
<g id="node24" class="node">
<title>d</title>
<ellipse fill="none" stroke="black" cx="174.12" cy="-636.75" rx="72.25" ry="69.09"/>
<text text-anchor="middle" x="174.12" y="-670.55" font-family="Times,serif" font-size="14.00">d</text>
<text text-anchor="middle" x="174.12" y="-655.55" font-family="Times,serif" font-size="14.00">&#45;&#45;&#45;&#45;&#45;&#45;&#45;&#45;&#45;&#45;&#45;&#45;&#45;</text>
<text text-anchor="middle" x="174.12" y="-640.55" font-family="Times,serif" font-size="14.00">putchar2=1</text>
<text text-anchor="middle" x="174.12" y="-625.55" font-family="Times,serif" font-size="14.00">putchar5=1</text>
<text text-anchor="middle" x="174.12" y="-610.55" font-family="Times,serif" font-size="14.00">putchar6=1</text>
<text text-anchor="middle" x="174.12" y="-595.55" font-family="Times,serif" font-size="14.00">wvalid=1</text>
</g>
<!-- l2_w&#45;&gt;d -->
<g id="edge35" class="edge">
<title>l2_w&#45;&gt;d</title>
<path fill="none" stroke="black" d="M174.12,-756.96C174.12,-745.37 174.12,-731.02 174.12,-716.34"/>
<polygon fill="black" stroke="black" points="177.62,-716.15 174.12,-706.15 170.62,-716.15 177.62,-716.15"/>
<text text-anchor="middle" x="211.12" y="-727.85" font-family="Times,serif" font-size="14.00">wready=1</text>
</g>
<!-- d_w -->
<g id="node25" class="node">
<title>d_w</title>
<ellipse fill="none" stroke="black" cx="174.12" cy="-489.58" rx="53.07" ry="26.74"/>
<text text-anchor="middle" x="174.12" y="-493.38" font-family="Times,serif" font-size="14.00">d_w</text>
<text text-anchor="middle" x="174.12" y="-478.38" font-family="Times,serif" font-size="14.00">&#45;&#45;&#45;&#45;&#45;&#45;&#45;&#45;&#45;&#45;&#45;&#45;&#45;</text>
</g>
<!-- d&#45;&gt;d_w -->
<g id="edge36" class="edge">
<title>d&#45;&gt;d_w</title>
<path fill="none" stroke="#c1b2ff" d="M174.12,-567.42C174.12,-553.42 174.12,-539.22 174.12,-526.9"/>
<polygon fill="#c1b2ff" stroke="#c1b2ff" points="177.62,-526.6 174.12,-516.6 170.62,-526.6 177.62,-526.6"/>
<text text-anchor="middle" x="181.62" y="-538.25" font-family="Times,serif" font-size="14.00">@</text>
</g>
<!-- d_w&#45;&gt;d_w -->
<g id="edge37" class="edge">
<title>d_w&#45;&gt;d_w</title>
<path fill="none" stroke="#c1b2ff" d="M223.91,-499.18C236.09,-498.47 245.16,-495.27 245.16,-489.58 245.16,-485.67 240.87,-482.94 234.24,-481.38"/>
<polygon fill="#c1b2ff" stroke="#c1b2ff" points="234.29,-477.86 223.91,-479.99 233.35,-484.79 234.29,-477.86"/>
<text text-anchor="middle" x="252.66" y="-485.88" font-family="Times,serif" font-size="14.00">@</text>
</g>
<!-- yeah -->
<g id="node26" class="node">
<title>yeah</title>
<ellipse fill="none" stroke="black" cx="176.12" cy="-353.02" rx="72.25" ry="58.88"/>
<text text-anchor="middle" x="176.12" y="-379.32" font-family="Times,serif" font-size="14.00">yeah</text>
<text text-anchor="middle" x="176.12" y="-364.32" font-family="Times,serif" font-size="14.00">&#45;&#45;&#45;&#45;&#45;&#45;&#45;&#45;&#45;&#45;&#45;&#45;&#45;</text>
<text text-anchor="middle" x="176.12" y="-349.32" font-family="Times,serif" font-size="14.00">putchar0=1</text>
<text text-anchor="middle" x="176.12" y="-334.32" font-family="Times,serif" font-size="14.00">putchar5=1</text>
<text text-anchor="middle" x="176.12" y="-319.32" font-family="Times,serif" font-size="14.00">wvalid=1</text>
</g>
<!-- d_w&#45;&gt;yeah -->
<g id="edge38" class="edge">
<title>d_w&#45;&gt;yeah</title>
<path fill="none" stroke="black" d="M174.51,-462.64C174.68,-450.91 174.9,-436.45 175.12,-421.94"/>
<polygon fill="black" stroke="black" points="178.62,-421.98 175.26,-411.93 171.62,-421.88 178.62,-421.98"/>
<text text-anchor="middle" x="212.12" y="-433.51" font-family="Times,serif" font-size="14.00">wready=1</text>
</g>
<!-- yeah_w -->
<g id="node27" class="node">
<title>yeah_w</title>
<ellipse fill="none" stroke="black" cx="182.12" cy="-216.46" rx="53.07" ry="26.74"/>
<text text-anchor="middle" x="182.12" y="-220.26" font-family="Times,serif" font-size="14.00">yeah_w</text>
<text text-anchor="middle" x="182.12" y="-205.26" font-family="Times,serif" font-size="14.00">&#45;&#45;&#45;&#45;&#45;&#45;&#45;&#45;&#45;&#45;&#45;&#45;&#45;</text>
</g>
<!-- yeah&#45;&gt;yeah_w -->
<g id="edge39" class="edge">
<title>yeah&#45;&gt;yeah_w</title>
<path fill="none" stroke="#c1b2ff" d="M178.7,-294.18C179.32,-280.38 179.96,-266.03 180.52,-253.54"/>
<polygon fill="#c1b2ff" stroke="#c1b2ff" points="184.01,-253.67 180.96,-243.53 177.02,-253.36 184.01,-253.67"/>
<text text-anchor="middle" x="187.62" y="-265.13" font-family="Times,serif" font-size="14.00">@</text>
</g>
<!-- yeah_w&#45;&gt;yeah_w -->
<g id="edge40" class="edge">
<title>yeah_w&#45;&gt;yeah_w</title>
<path fill="none" stroke="#c1b2ff" d="M231.91,-226.06C244.09,-225.35 253.16,-222.15 253.16,-216.46 253.16,-212.55 248.87,-209.82 242.24,-208.26"/>
<polygon fill="#c1b2ff" stroke="#c1b2ff" points="242.29,-204.74 231.91,-206.87 241.35,-211.67 242.29,-204.74"/>
<text text-anchor="middle" x="260.66" y="-212.76" font-family="Times,serif" font-size="14.00">@</text>
</g>
<!-- end -->
<g id="node28" class="node">
<title>end</title>
<ellipse fill="none" stroke="black" cx="239.12" cy="-69.3" rx="72.25" ry="69.09"/>
<text text-anchor="middle" x="239.12" y="-103.1" font-family="Times,serif" font-size="14.00">end</text>
<text text-anchor="middle" x="239.12" y="-88.1" font-family="Times,serif" font-size="14.00">&#45;&#45;&#45;&#45;&#45;&#45;&#45;&#45;&#45;&#45;&#45;&#45;&#45;</text>
<text text-anchor="middle" x="239.12" y="-73.1" font-family="Times,serif" font-size="14.00">putchar0=1</text>
<text text-anchor="middle" x="239.12" y="-58.1" font-family="Times,serif" font-size="14.00">putchar2=1</text>
<text text-anchor="middle" x="239.12" y="-43.1" font-family="Times,serif" font-size="14.00">putchar3=1</text>
<text text-anchor="middle" x="239.12" y="-28.1" font-family="Times,serif" font-size="14.00">wvalid=1</text>
</g>
<!-- yeah_w&#45;&gt;end -->
<g id="edge41" class="edge">
<title>yeah_w&#45;&gt;end</title>
<path fill="none" stroke="black" d="M192.18,-189.84C197.26,-176.92 203.7,-160.51 210.18,-144.02"/>
<polygon fill="black" stroke="black" points="213.59,-144.91 213.98,-134.32 207.07,-142.35 213.59,-144.91"/>
<text text-anchor="middle" x="241.12" y="-160.39" font-family="Times,serif" font-size="14.00">wready=1</text>
</g>
<!-- end&#45;&gt;IDLE0 -->
<g id="edge42" class="edge">
<title>end&#45;&gt;IDLE0</title>
<path fill="none" stroke="#c1b2ff" d="M274.09,-130.08C285.89,-155.53 296.12,-186.09 296.12,-215.46 296.12,-4081.59 296.12,-4081.59 296.12,-4081.59 296.12,-4107.6 282.11,-4133.3 268.11,-4152.49"/>
<polygon fill="#c1b2ff" stroke="#c1b2ff" points="265.23,-4150.49 261.94,-4160.56 270.79,-4154.74 265.23,-4150.49"/>
<text text-anchor="middle" x="303.62" y="-2106.04" font-family="Times,serif" font-size="14.00">@</text>
</g>
</g>
</svg>
