<?xml version="1.0" encoding="UTF-8" standalone="no"?>
<!DOCTYPE svg PUBLIC "-//W3C//DTD SVG 1.1//EN"
 "http://www.w3.org/Graphics/SVG/1.1/DTD/svg11.dtd">
<!-- Generated by graphviz version 2.43.20190912.0211 (20190912.0211)
 -->
<!-- Title: G Pages: 1 -->
<svg width="684pt" height="845pt"
 viewBox="0.00 0.00 684.12 845.24" xmlns="http://www.w3.org/2000/svg" xmlns:xlink="http://www.w3.org/1999/xlink">
<g id="graph0" class="graph" transform="scale(1 1) rotate(0) translate(4 841.24)">
<title>G</title>
<polygon fill="white" stroke="transparent" points="-4,4 -4,-841.24 680.12,-841.24 680.12,4 -4,4"/>
<!-- IDLE0 -->
<g id="node1" class="node">
<title>IDLE0</title>
<ellipse fill="none" stroke="black" cx="131.12" cy="-810.37" rx="53.07" ry="26.74"/>
<text text-anchor="middle" x="131.12" y="-814.17" font-family="Times,serif" font-size="14.00">IDLE0</text>
<text text-anchor="middle" x="131.12" y="-799.17" font-family="Times,serif" font-size="14.00">&#45;&#45;&#45;&#45;&#45;&#45;&#45;&#45;&#45;&#45;&#45;&#45;&#45;</text>
</g>
<!-- IDLE0&#45;&gt;IDLE0 -->
<g id="edge1" class="edge">
<title>IDLE0&#45;&gt;IDLE0</title>
<path fill="none" stroke="#c1b2ff" d="M180.91,-819.97C193.09,-819.26 202.16,-816.06 202.16,-810.37 202.16,-806.46 197.87,-803.73 191.24,-802.17"/>
<polygon fill="#c1b2ff" stroke="#c1b2ff" points="191.29,-798.64 180.91,-800.77 190.35,-805.58 191.29,-798.64"/>
<text text-anchor="middle" x="209.66" y="-806.67" font-family="Times,serif" font-size="14.00">@</text>
</g>
<!-- q0 -->
<g id="node2" class="node">
<title>q0</title>
<ellipse fill="none" stroke="black" cx="131.12" cy="-695.02" rx="60.21" ry="37.45"/>
<text text-anchor="middle" x="131.12" y="-706.32" font-family="Times,serif" font-size="14.00">q0</text>
<text text-anchor="middle" x="131.12" y="-691.32" font-family="Times,serif" font-size="14.00">&#45;&#45;&#45;&#45;&#45;&#45;&#45;&#45;&#45;&#45;&#45;&#45;&#45;</text>
<text text-anchor="middle" x="131.12" y="-676.32" font-family="Times,serif" font-size="14.00">rready=1</text>
</g>
<!-- IDLE0&#45;&gt;q0 -->
<g id="edge2" class="edge">
<title>IDLE0&#45;&gt;q0</title>
<path fill="none" stroke="black" d="M131.12,-783.37C131.12,-771.39 131.12,-756.79 131.12,-742.99"/>
<polygon fill="black" stroke="black" points="134.62,-742.64 131.12,-732.64 127.62,-742.64 134.62,-742.64"/>
<text text-anchor="middle" x="161.62" y="-754.3" font-family="Times,serif" font-size="14.00">cmd0=0</text>
</g>
<!-- q0&#45;&gt;q0 -->
<g id="edge6" class="edge">
<title>q0&#45;&gt;q0</title>
<path fill="none" stroke="black" d="M188.69,-706.24C200.64,-705.06 209.23,-701.32 209.23,-695.02 209.23,-690.69 205.17,-687.57 198.75,-685.66"/>
<polygon fill="black" stroke="black" points="199.15,-682.18 188.69,-683.81 197.88,-689.06 199.15,-682.18"/>
<text text-anchor="middle" x="240.73" y="-691.32" font-family="Times,serif" font-size="14.00">rvalid=0</text>
</g>
<!-- q3 -->
<g id="node3" class="node">
<title>q3</title>
<ellipse fill="none" stroke="black" cx="126.12" cy="-237.68" rx="53.07" ry="26.74"/>
<text text-anchor="middle" x="126.12" y="-241.48" font-family="Times,serif" font-size="14.00">q3</text>
<text text-anchor="middle" x="126.12" y="-226.48" font-family="Times,serif" font-size="14.00">&#45;&#45;&#45;&#45;&#45;&#45;&#45;&#45;&#45;&#45;&#45;&#45;&#45;</text>
</g>
<!-- q0&#45;&gt;q3 -->
<g id="edge3" class="edge">
<title>q0&#45;&gt;q3</title>
<path fill="none" stroke="#c1b2ff" d="M117.56,-658.38C115.72,-652.19 114.12,-645.74 113.12,-639.55 111.01,-626.38 113,-622.88 113.12,-609.55 114.46,-464.19 106.31,-427.34 119.12,-282.55 119.35,-279.99 119.64,-277.36 119.96,-274.72"/>
<polygon fill="#c1b2ff" stroke="#c1b2ff" points="123.46,-274.97 121.38,-264.58 116.53,-274 123.46,-274.97"/>
<text text-anchor="middle" x="119.62" y="-457.35" font-family="Times,serif" font-size="14.00">@</text>
</g>
<!-- q1 -->
<g id="node4" class="node">
<title>q1</title>
<ellipse fill="none" stroke="black" cx="220.12" cy="-554.05" rx="60.21" ry="37.45"/>
<text text-anchor="middle" x="220.12" y="-565.35" font-family="Times,serif" font-size="14.00">q1</text>
<text text-anchor="middle" x="220.12" y="-550.35" font-family="Times,serif" font-size="14.00">&#45;&#45;&#45;&#45;&#45;&#45;&#45;&#45;&#45;&#45;&#45;&#45;&#45;</text>
<text text-anchor="middle" x="220.12" y="-535.35" font-family="Times,serif" font-size="14.00">rready=1</text>
</g>
<!-- q0&#45;&gt;q1 -->
<g id="edge4" class="edge">
<title>q0&#45;&gt;q1</title>
<path fill="none" stroke="black" d="M119.26,-658.27C116.15,-642.38 115.68,-624.04 124.12,-609.55 132.07,-595.89 144.86,-585.38 158.54,-577.4"/>
<polygon fill="black" stroke="black" points="160.47,-580.34 167.62,-572.52 157.16,-574.17 160.47,-580.34"/>
<text text-anchor="middle" x="182.12" y="-628.35" font-family="Times,serif" font-size="14.00">capital_letter=1</text>
<text text-anchor="middle" x="182.12" y="-613.35" font-family="Times,serif" font-size="14.00">rvalid=1</text>
</g>
<!-- q0&#45;&gt;q1 -->
<g id="edge5" class="edge">
<title>q0&#45;&gt;q1</title>
<path fill="none" stroke="black" d="M186.25,-679.94C206.83,-671.71 228.11,-658.98 240.12,-639.55 247.52,-627.58 246.87,-613.1 243.05,-599.54"/>
<polygon fill="black" stroke="black" points="246.3,-598.22 239.78,-589.87 239.67,-600.47 246.3,-598.22"/>
<text text-anchor="middle" x="298.12" y="-628.35" font-family="Times,serif" font-size="14.00">rvalid=1</text>
<text text-anchor="middle" x="298.12" y="-613.35" font-family="Times,serif" font-size="14.00">small_letter=1</text>
</g>
<!-- q3&#45;&gt;q3 -->
<g id="edge13" class="edge">
<title>q3&#45;&gt;q3</title>
<path fill="none" stroke="#c1b2ff" d="M175.91,-247.27C188.09,-246.56 197.16,-243.36 197.16,-237.68 197.16,-233.77 192.87,-231.03 186.24,-229.47"/>
<polygon fill="#c1b2ff" stroke="#c1b2ff" points="186.29,-225.95 175.91,-228.08 185.35,-232.89 186.29,-225.95"/>
<text text-anchor="middle" x="204.66" y="-233.98" font-family="Times,serif" font-size="14.00">@</text>
</g>
<!-- q3_tx -->
<g id="node7" class="node">
<title>q3_tx</title>
<ellipse fill="none" stroke="black" cx="72.12" cy="-79.9" rx="72.25" ry="79.81"/>
<text text-anchor="middle" x="72.12" y="-121.2" font-family="Times,serif" font-size="14.00">q3_tx</text>
<text text-anchor="middle" x="72.12" y="-106.2" font-family="Times,serif" font-size="14.00">&#45;&#45;&#45;&#45;&#45;&#45;&#45;&#45;&#45;&#45;&#45;&#45;&#45;</text>
<text text-anchor="middle" x="72.12" y="-91.2" font-family="Times,serif" font-size="14.00">putchar0=1</text>
<text text-anchor="middle" x="72.12" y="-76.2" font-family="Times,serif" font-size="14.00">putchar2=1</text>
<text text-anchor="middle" x="72.12" y="-61.2" font-family="Times,serif" font-size="14.00">putchar3=1</text>
<text text-anchor="middle" x="72.12" y="-46.2" font-family="Times,serif" font-size="14.00">putchar5=1</text>
<text text-anchor="middle" x="72.12" y="-31.2" font-family="Times,serif" font-size="14.00">wvalid=1</text>
</g>
<!-- q3&#45;&gt;q3_tx -->
<g id="edge14" class="edge">
<title>q3&#45;&gt;q3_tx</title>
<path fill="none" stroke="black" d="M117.21,-210.95C112.68,-197.9 106.91,-181.23 101.01,-164.22"/>
<polygon fill="black" stroke="black" points="104.31,-163.05 97.73,-154.75 97.69,-165.35 104.31,-163.05"/>
<text text-anchor="middle" x="147.12" y="-181.61" font-family="Times,serif" font-size="14.00">wready=1</text>
</g>
<!-- q1&#45;&gt;q3 -->
<g id="edge7" class="edge">
<title>q1&#45;&gt;q3</title>
<path fill="none" stroke="#c1b2ff" d="M195.12,-519.63C175.21,-490.99 148.67,-447.78 136.12,-405.55 123.17,-361.93 122.33,-309.15 123.63,-274.79"/>
<polygon fill="#c1b2ff" stroke="#c1b2ff" points="127.13,-274.9 124.09,-264.75 120.13,-274.58 127.13,-274.9"/>
<text text-anchor="middle" x="143.62" y="-364.35" font-family="Times,serif" font-size="14.00">@</text>
</g>
<!-- q1&#45;&gt;q1 -->
<g id="edge10" class="edge">
<title>q1&#45;&gt;q1</title>
<path fill="none" stroke="black" d="M280.05,-558.16C290.75,-557.63 298.23,-556.26 298.23,-554.05 298.23,-552.63 295.16,-551.56 290.14,-550.83"/>
<polygon fill="black" stroke="black" points="290.32,-547.33 280.05,-549.93 289.7,-554.3 290.32,-547.33"/>
<text text-anchor="middle" x="356.23" y="-580.35" font-family="Times,serif" font-size="14.00">capital_letter=0</text>
<text text-anchor="middle" x="356.23" y="-565.35" font-family="Times,serif" font-size="14.00">number=0</text>
<text text-anchor="middle" x="356.23" y="-550.35" font-family="Times,serif" font-size="14.00">rvalid=1</text>
<text text-anchor="middle" x="356.23" y="-535.35" font-family="Times,serif" font-size="14.00">small_letter=1</text>
<text text-anchor="middle" x="356.23" y="-520.35" font-family="Times,serif" font-size="14.00">whitespace=0</text>
</g>
<!-- q1&#45;&gt;q1 -->
<g id="edge11" class="edge">
<title>q1&#45;&gt;q1</title>
<path fill="none" stroke="black" d="M279.34,-561.57C337.63,-564.57 414.23,-562.07 414.23,-554.05 414.23,-546.48 346.06,-543.82 289.4,-546.07"/>
<polygon fill="black" stroke="black" points="289.17,-542.58 279.34,-546.53 289.49,-549.57 289.17,-542.58"/>
<text text-anchor="middle" x="472.23" y="-580.35" font-family="Times,serif" font-size="14.00">capital_letter=1</text>
<text text-anchor="middle" x="472.23" y="-565.35" font-family="Times,serif" font-size="14.00">number=0</text>
<text text-anchor="middle" x="472.23" y="-550.35" font-family="Times,serif" font-size="14.00">rvalid=1</text>
<text text-anchor="middle" x="472.23" y="-535.35" font-family="Times,serif" font-size="14.00">small_letter=0</text>
<text text-anchor="middle" x="472.23" y="-520.35" font-family="Times,serif" font-size="14.00">whitespace=0</text>
</g>
<!-- q1&#45;&gt;q1 -->
<g id="edge12" class="edge">
<title>q1&#45;&gt;q1</title>
<path fill="none" stroke="black" d="M278.57,-563.44C370.34,-570.59 530.23,-567.46 530.23,-554.05 530.23,-541.12 381.69,-537.74 288.77,-543.92"/>
<polygon fill="black" stroke="black" points="288.29,-540.44 278.57,-544.65 288.79,-547.43 288.29,-540.44"/>
<text text-anchor="middle" x="561.73" y="-550.35" font-family="Times,serif" font-size="14.00">rvalid=0</text>
</g>
<!-- q4 -->
<g id="node5" class="node">
<title>q4</title>
<ellipse fill="none" stroke="black" cx="517.12" cy="-237.68" rx="53.07" ry="26.74"/>
<text text-anchor="middle" x="517.12" y="-241.48" font-family="Times,serif" font-size="14.00">q4</text>
<text text-anchor="middle" x="517.12" y="-226.48" font-family="Times,serif" font-size="14.00">&#45;&#45;&#45;&#45;&#45;&#45;&#45;&#45;&#45;&#45;&#45;&#45;&#45;</text>
</g>
<!-- q1&#45;&gt;q4 -->
<g id="edge8" class="edge">
<title>q1&#45;&gt;q4</title>
<path fill="none" stroke="black" d="M275.69,-539.37C339.02,-520.64 440.19,-480.43 490.12,-405.55 516.21,-366.43 520.22,-310.93 519.57,-274.87"/>
<polygon fill="black" stroke="black" points="523.07,-274.68 519.26,-264.79 516.07,-274.89 523.07,-274.68"/>
<text text-anchor="middle" x="573.12" y="-394.35" font-family="Times,serif" font-size="14.00">capital_letter=0</text>
<text text-anchor="middle" x="573.12" y="-379.35" font-family="Times,serif" font-size="14.00">number=0</text>
<text text-anchor="middle" x="573.12" y="-364.35" font-family="Times,serif" font-size="14.00">rvalid=1</text>
<text text-anchor="middle" x="573.12" y="-349.35" font-family="Times,serif" font-size="14.00">small_letter=0</text>
<text text-anchor="middle" x="573.12" y="-334.35" font-family="Times,serif" font-size="14.00">whitespace=1</text>
</g>
<!-- q2 -->
<g id="node6" class="node">
<title>q2</title>
<ellipse fill="none" stroke="black" cx="220.12" cy="-368.05" rx="60.21" ry="37.45"/>
<text text-anchor="middle" x="220.12" y="-379.35" font-family="Times,serif" font-size="14.00">q2</text>
<text text-anchor="middle" x="220.12" y="-364.35" font-family="Times,serif" font-size="14.00">&#45;&#45;&#45;&#45;&#45;&#45;&#45;&#45;&#45;&#45;&#45;&#45;&#45;</text>
<text text-anchor="middle" x="220.12" y="-349.35" font-family="Times,serif" font-size="14.00">rready=1</text>
</g>
<!-- q1&#45;&gt;q2 -->
<g id="edge9" class="edge">
<title>q1&#45;&gt;q2</title>
<path fill="none" stroke="black" d="M220.12,-516.25C220.12,-487.42 220.12,-447.11 220.12,-415.96"/>
<polygon fill="black" stroke="black" points="223.62,-415.78 220.12,-405.78 216.62,-415.78 223.62,-415.78"/>
<text text-anchor="middle" x="278.12" y="-487.35" font-family="Times,serif" font-size="14.00">capital_letter=0</text>
<text text-anchor="middle" x="278.12" y="-472.35" font-family="Times,serif" font-size="14.00">number=1</text>
<text text-anchor="middle" x="278.12" y="-457.35" font-family="Times,serif" font-size="14.00">rvalid=1</text>
<text text-anchor="middle" x="278.12" y="-442.35" font-family="Times,serif" font-size="14.00">small_letter=0</text>
<text text-anchor="middle" x="278.12" y="-427.35" font-family="Times,serif" font-size="14.00">whitespace=0</text>
</g>
<!-- q4&#45;&gt;q4 -->
<g id="edge19" class="edge">
<title>q4&#45;&gt;q4</title>
<path fill="none" stroke="#c1b2ff" d="M566.91,-247.27C579.09,-246.56 588.16,-243.36 588.16,-237.68 588.16,-233.77 583.87,-231.03 577.24,-229.47"/>
<polygon fill="#c1b2ff" stroke="#c1b2ff" points="577.29,-225.95 566.91,-228.08 576.35,-232.89 577.29,-225.95"/>
<text text-anchor="middle" x="595.66" y="-233.98" font-family="Times,serif" font-size="14.00">@</text>
</g>
<!-- q4_tx -->
<g id="node8" class="node">
<title>q4_tx</title>
<ellipse fill="none" stroke="black" cx="589.12" cy="-79.9" rx="72.25" ry="79.81"/>
<text text-anchor="middle" x="589.12" y="-121.2" font-family="Times,serif" font-size="14.00">q4_tx</text>
<text text-anchor="middle" x="589.12" y="-106.2" font-family="Times,serif" font-size="14.00">&#45;&#45;&#45;&#45;&#45;&#45;&#45;&#45;&#45;&#45;&#45;&#45;&#45;</text>
<text text-anchor="middle" x="589.12" y="-91.2" font-family="Times,serif" font-size="14.00">putchar0=1</text>
<text text-anchor="middle" x="589.12" y="-76.2" font-family="Times,serif" font-size="14.00">putchar1=1</text>
<text text-anchor="middle" x="589.12" y="-61.2" font-family="Times,serif" font-size="14.00">putchar3=1</text>
<text text-anchor="middle" x="589.12" y="-46.2" font-family="Times,serif" font-size="14.00">putchar5=1</text>
<text text-anchor="middle" x="589.12" y="-31.2" font-family="Times,serif" font-size="14.00">wvalid=1</text>
</g>
<!-- q4&#45;&gt;q4_tx -->
<g id="edge20" class="edge">
<title>q4&#45;&gt;q4_tx</title>
<path fill="none" stroke="black" d="M528.85,-211.3C535.33,-197.29 543.77,-179.03 552.27,-160.64"/>
<polygon fill="black" stroke="black" points="555.56,-161.87 556.58,-151.32 549.2,-158.93 555.56,-161.87"/>
<text text-anchor="middle" x="579.12" y="-181.61" font-family="Times,serif" font-size="14.00">wready=1</text>
</g>
<!-- q2&#45;&gt;q3 -->
<g id="edge15" class="edge">
<title>q2&#45;&gt;q3</title>
<path fill="none" stroke="#c1b2ff" d="M195.67,-333.65C181.65,-314.5 164.11,-290.55 150.15,-271.49"/>
<polygon fill="#c1b2ff" stroke="#c1b2ff" points="152.95,-269.38 144.22,-263.38 147.3,-273.52 152.95,-269.38"/>
<text text-anchor="middle" x="185.62" y="-293.85" font-family="Times,serif" font-size="14.00">@</text>
</g>
<!-- q2&#45;&gt;q4 -->
<g id="edge16" class="edge">
<title>q2&#45;&gt;q4</title>
<path fill="none" stroke="black" d="M266.57,-344.19C302.88,-326.6 354.79,-302.09 401.12,-282.55 421.84,-273.81 444.95,-264.9 465.06,-257.41"/>
<polygon fill="black" stroke="black" points="466.51,-260.61 474.67,-253.86 464.08,-254.05 466.51,-260.61"/>
<text text-anchor="middle" x="452.12" y="-301.35" font-family="Times,serif" font-size="14.00">rvalid=1</text>
<text text-anchor="middle" x="452.12" y="-286.35" font-family="Times,serif" font-size="14.00">whitespace=1</text>
</g>
<!-- q2&#45;&gt;q2 -->
<g id="edge17" class="edge">
<title>q2&#45;&gt;q2</title>
<path fill="none" stroke="black" d="M279.72,-374.25C290.6,-373.46 298.23,-371.4 298.23,-368.05 298.23,-365.9 295.1,-364.28 289.99,-363.19"/>
<polygon fill="black" stroke="black" points="290.09,-359.67 279.72,-361.84 289.18,-366.61 290.09,-359.67"/>
<text text-anchor="middle" x="349.23" y="-379.35" font-family="Times,serif" font-size="14.00">number=1</text>
<text text-anchor="middle" x="349.23" y="-364.35" font-family="Times,serif" font-size="14.00">rvalid=1</text>
<text text-anchor="middle" x="349.23" y="-349.35" font-family="Times,serif" font-size="14.00">whitespace=0</text>
</g>
<!-- q2&#45;&gt;q2 -->
<g id="edge18" class="edge">
<title>q2&#45;&gt;q2</title>
<path fill="none" stroke="black" d="M277.48,-379.44C331.43,-383.77 400.23,-379.97 400.23,-368.05 400.23,-356.86 339.76,-352.83 287.75,-355.94"/>
<polygon fill="black" stroke="black" points="287.21,-352.47 277.48,-356.65 287.7,-359.45 287.21,-352.47"/>
<text text-anchor="middle" x="431.73" y="-364.35" font-family="Times,serif" font-size="14.00">rvalid=0</text>
</g>
<!-- q3_tx&#45;&gt;IDLE0 -->
<g id="edge21" class="edge">
<title>q3_tx&#45;&gt;IDLE0</title>
<path fill="none" stroke="#c1b2ff" d="M52.22,-156.84C47.16,-182.06 43.12,-210.41 43.12,-236.68 43.12,-696.02 43.12,-696.02 43.12,-696.02 43.12,-730.49 68.83,-760.81 92.45,-781.4"/>
<polygon fill="#c1b2ff" stroke="#c1b2ff" points="90.43,-784.27 100.35,-788 94.92,-778.9 90.43,-784.27"/>
<text text-anchor="middle" x="50.62" y="-457.35" font-family="Times,serif" font-size="14.00">@</text>
</g>
<!-- q4_tx&#45;&gt;IDLE0 -->
<g id="edge22" class="edge">
<title>q4_tx&#45;&gt;IDLE0</title>
<path fill="none" stroke="#c1b2ff" d="M632.88,-143.51C647.95,-170.84 661.12,-204.05 661.12,-236.68 661.12,-696.02 661.12,-696.02 661.12,-696.02 661.12,-790.46 335.28,-806.49 194.58,-809.01"/>
<polygon fill="#c1b2ff" stroke="#c1b2ff" points="194.31,-805.51 184.37,-809.17 194.43,-812.51 194.31,-805.51"/>
<text text-anchor="middle" x="668.62" y="-457.35" font-family="Times,serif" font-size="14.00">@</text>
</g>
</g>
</svg>
