<?xml version="1.0" encoding="UTF-8" standalone="no"?>
<!DOCTYPE svg PUBLIC "-//W3C//DTD SVG 1.1//EN"
 "http://www.w3.org/Graphics/SVG/1.1/DTD/svg11.dtd">
<!-- Generated by graphviz version 2.43.20190912.0211 (20190912.0211)
 -->
<!-- Title: G Pages: 1 -->
<svg width="586pt" height="845pt"
 viewBox="0.00 0.00 585.72 845.24" xmlns="http://www.w3.org/2000/svg" xmlns:xlink="http://www.w3.org/1999/xlink">
<g id="graph0" class="graph" transform="scale(1 1) rotate(0) translate(4 841.24)">
<title>G</title>
<polygon fill="white" stroke="transparent" points="-4,4 -4,-841.24 581.72,-841.24 581.72,4 -4,4"/>
<!-- IDLE0 -->
<g id="node1" class="node">
<title>IDLE0</title>
<ellipse fill="none" stroke="black" cx="107.86" cy="-810.37" rx="53.07" ry="26.74"/>
<text text-anchor="middle" x="107.86" y="-814.17" font-family="Times,serif" font-size="14.00">IDLE0</text>
<text text-anchor="middle" x="107.86" y="-799.17" font-family="Times,serif" font-size="14.00">&#45;&#45;&#45;&#45;&#45;&#45;&#45;&#45;&#45;&#45;&#45;&#45;&#45;</text>
</g>
<!-- IDLE0&#45;&gt;IDLE0 -->
<g id="edge1" class="edge">
<title>IDLE0&#45;&gt;IDLE0</title>
<path fill="none" stroke="#c1b2ff" d="M157.65,-819.97C169.83,-819.26 178.89,-816.06 178.89,-810.37 178.89,-806.46 174.61,-803.73 167.97,-802.17"/>
<polygon fill="#c1b2ff" stroke="#c1b2ff" points="168.03,-798.64 157.65,-800.77 167.09,-805.58 168.03,-798.64"/>
<text text-anchor="middle" x="185.39" y="-806.67" font-family="Times,serif" font-size="14.00">@</text>
</g>
<!-- q0 -->
<g id="node2" class="node">
<title>q0</title>
<ellipse fill="none" stroke="black" cx="107.86" cy="-695.02" rx="53.07" ry="37.45"/>
<text text-anchor="middle" x="107.86" y="-706.32" font-family="Times,serif" font-size="14.00">q0</text>
<text text-anchor="middle" x="107.86" y="-691.32" font-family="Times,serif" font-size="14.00">&#45;&#45;&#45;&#45;&#45;&#45;&#45;&#45;&#45;&#45;&#45;&#45;&#45;</text>
<text text-anchor="middle" x="107.86" y="-676.32" font-family="Times,serif" font-size="14.00">rready=1</text>
</g>
<!-- IDLE0&#45;&gt;q0 -->
<g id="edge2" class="edge">
<title>IDLE0&#45;&gt;q0</title>
<path fill="none" stroke="black" d="M107.86,-783.37C107.86,-771.39 107.86,-756.79 107.86,-742.99"/>
<polygon fill="black" stroke="black" points="111.36,-742.64 107.86,-732.64 104.36,-742.64 111.36,-742.64"/>
<text text-anchor="middle" x="130.86" y="-754.3" font-family="Times,serif" font-size="14.00">cmd0=0</text>
</g>
<!-- q0&#45;&gt;q0 -->
<g id="edge6" class="edge">
<title>q0&#45;&gt;q0</title>
<path fill="none" stroke="black" d="M158.62,-706.39C170.31,-705.41 178.89,-701.62 178.89,-695.02 178.89,-690.49 174.84,-687.28 168.5,-685.4"/>
<polygon fill="black" stroke="black" points="169.08,-681.94 158.62,-683.65 167.86,-688.84 169.08,-681.94"/>
<text text-anchor="middle" x="202.89" y="-691.32" font-family="Times,serif" font-size="14.00">rvalid=0</text>
</g>
<!-- q3 -->
<g id="node3" class="node">
<title>q3</title>
<ellipse fill="none" stroke="black" cx="109.86" cy="-237.68" rx="53.07" ry="26.74"/>
<text text-anchor="middle" x="109.86" y="-241.48" font-family="Times,serif" font-size="14.00">q3</text>
<text text-anchor="middle" x="109.86" y="-226.48" font-family="Times,serif" font-size="14.00">&#45;&#45;&#45;&#45;&#45;&#45;&#45;&#45;&#45;&#45;&#45;&#45;&#45;</text>
</g>
<!-- q0&#45;&gt;q3 -->
<g id="edge3" class="edge">
<title>q0&#45;&gt;q3</title>
<path fill="none" stroke="#c1b2ff" d="M96.55,-658.26C95.02,-652.08 93.69,-645.67 92.86,-639.55 91.08,-626.33 92.64,-622.88 92.86,-609.55 95.31,-464.15 91.55,-427.44 103.86,-282.55 104.08,-280 104.34,-277.37 104.63,-274.73"/>
<polygon fill="#c1b2ff" stroke="#c1b2ff" points="108.13,-274.96 105.87,-264.61 101.18,-274.11 108.13,-274.96"/>
<text text-anchor="middle" x="102.36" y="-457.35" font-family="Times,serif" font-size="14.00">@</text>
</g>
<!-- q1 -->
<g id="node4" class="node">
<title>q1</title>
<ellipse fill="none" stroke="black" cx="194.86" cy="-554.05" rx="53.07" ry="37.45"/>
<text text-anchor="middle" x="194.86" y="-565.35" font-family="Times,serif" font-size="14.00">q1</text>
<text text-anchor="middle" x="194.86" y="-550.35" font-family="Times,serif" font-size="14.00">&#45;&#45;&#45;&#45;&#45;&#45;&#45;&#45;&#45;&#45;&#45;&#45;&#45;</text>
<text text-anchor="middle" x="194.86" y="-535.35" font-family="Times,serif" font-size="14.00">rready=1</text>
</g>
<!-- q0&#45;&gt;q1 -->
<g id="edge4" class="edge">
<title>q0&#45;&gt;q1</title>
<path fill="none" stroke="black" d="M97.85,-657.91C95.5,-642.13 95.68,-623.98 103.86,-609.55 111.76,-595.62 124.79,-584.86 138.55,-576.73"/>
<polygon fill="black" stroke="black" points="140.56,-579.62 147.66,-571.76 137.2,-573.48 140.56,-579.62"/>
<text text-anchor="middle" x="146.86" y="-628.35" font-family="Times,serif" font-size="14.00">capital_letter=1</text>
<text text-anchor="middle" x="146.86" y="-613.35" font-family="Times,serif" font-size="14.00">rvalid=1</text>
</g>
<!-- q0&#45;&gt;q1 -->
<g id="edge5" class="edge">
<title>q0&#45;&gt;q1</title>
<path fill="none" stroke="black" d="M152.61,-674.5C166.97,-665.92 181.34,-654.36 189.86,-639.55 196.33,-628.29 198.93,-614.73 199.56,-601.81"/>
<polygon fill="black" stroke="black" points="203.06,-601.67 199.68,-591.63 196.07,-601.59 203.06,-601.67"/>
<text text-anchor="middle" x="237.86" y="-628.35" font-family="Times,serif" font-size="14.00">rvalid=1</text>
<text text-anchor="middle" x="237.86" y="-613.35" font-family="Times,serif" font-size="14.00">small_letter=1</text>
</g>
<!-- q3&#45;&gt;q3 -->
<g id="edge13" class="edge">
<title>q3&#45;&gt;q3</title>
<path fill="none" stroke="#c1b2ff" d="M159.65,-247.27C171.83,-246.56 180.89,-243.36 180.89,-237.68 180.89,-233.77 176.61,-231.03 169.97,-229.47"/>
<polygon fill="#c1b2ff" stroke="#c1b2ff" points="170.03,-225.95 159.65,-228.08 169.09,-232.89 170.03,-225.95"/>
<text text-anchor="middle" x="187.39" y="-233.98" font-family="Times,serif" font-size="14.00">@</text>
</g>
<!-- q3_tx -->
<g id="node7" class="node">
<title>q3_tx</title>
<ellipse fill="none" stroke="black" cx="55.86" cy="-79.9" rx="55.72" ry="79.81"/>
<text text-anchor="middle" x="55.86" y="-121.2" font-family="Times,serif" font-size="14.00">q3_tx</text>
<text text-anchor="middle" x="55.86" y="-106.2" font-family="Times,serif" font-size="14.00">&#45;&#45;&#45;&#45;&#45;&#45;&#45;&#45;&#45;&#45;&#45;&#45;&#45;</text>
<text text-anchor="middle" x="55.86" y="-91.2" font-family="Times,serif" font-size="14.00">putchar0=1</text>
<text text-anchor="middle" x="55.86" y="-76.2" font-family="Times,serif" font-size="14.00">putchar2=1</text>
<text text-anchor="middle" x="55.86" y="-61.2" font-family="Times,serif" font-size="14.00">putchar3=1</text>
<text text-anchor="middle" x="55.86" y="-46.2" font-family="Times,serif" font-size="14.00">putchar5=1</text>
<text text-anchor="middle" x="55.86" y="-31.2" font-family="Times,serif" font-size="14.00">wvalid=1</text>
</g>
<!-- q3&#45;&gt;q3_tx -->
<g id="edge14" class="edge">
<title>q3&#45;&gt;q3_tx</title>
<path fill="none" stroke="black" d="M100.94,-210.95C96.19,-197.25 90.06,-179.55 83.85,-161.65"/>
<polygon fill="black" stroke="black" points="86.99,-160.01 80.41,-151.71 80.38,-162.31 86.99,-160.01"/>
<text text-anchor="middle" x="122.86" y="-181.61" font-family="Times,serif" font-size="14.00">wready=1</text>
</g>
<!-- q1&#45;&gt;q3 -->
<g id="edge7" class="edge">
<title>q1&#45;&gt;q3</title>
<path fill="none" stroke="#c1b2ff" d="M172.92,-519.8C155.12,-490.91 131.19,-447.27 119.86,-405.55 107.94,-361.63 106.87,-308.92 107.83,-274.66"/>
<polygon fill="#c1b2ff" stroke="#c1b2ff" points="111.33,-274.76 108.18,-264.64 104.33,-274.51 111.33,-274.76"/>
<text text-anchor="middle" x="126.36" y="-364.35" font-family="Times,serif" font-size="14.00">@</text>
</g>
<!-- q1&#45;&gt;q1 -->
<g id="edge10" class="edge">
<title>q1&#45;&gt;q1</title>
<path fill="none" stroke="black" d="M247.83,-558.24C258.38,-557.77 265.89,-556.37 265.89,-554.05 265.89,-552.56 262.81,-551.45 257.82,-550.72"/>
<polygon fill="black" stroke="black" points="258.1,-547.23 247.83,-549.85 257.49,-554.2 258.1,-547.23"/>
<text text-anchor="middle" x="308.89" y="-580.35" font-family="Times,serif" font-size="14.00">capital_letter=0</text>
<text text-anchor="middle" x="308.89" y="-565.35" font-family="Times,serif" font-size="14.00">number=0</text>
<text text-anchor="middle" x="308.89" y="-550.35" font-family="Times,serif" font-size="14.00">rvalid=1</text>
<text text-anchor="middle" x="308.89" y="-535.35" font-family="Times,serif" font-size="14.00">small_letter=1</text>
<text text-anchor="middle" x="308.89" y="-520.35" font-family="Times,serif" font-size="14.00">whitespace=0</text>
</g>
<!-- q1&#45;&gt;q1 -->
<g id="edge11" class="edge">
<title>q1&#45;&gt;q1</title>
<path fill="none" stroke="black" d="M246.86,-561.71C293.73,-564.49 351.89,-561.93 351.89,-554.05 351.89,-546.72 301.63,-543.99 256.89,-545.87"/>
<polygon fill="black" stroke="black" points="256.67,-542.38 246.86,-546.38 257.02,-549.37 256.67,-542.38"/>
<text text-anchor="middle" x="394.89" y="-580.35" font-family="Times,serif" font-size="14.00">capital_letter=1</text>
<text text-anchor="middle" x="394.89" y="-565.35" font-family="Times,serif" font-size="14.00">number=0</text>
<text text-anchor="middle" x="394.89" y="-550.35" font-family="Times,serif" font-size="14.00">rvalid=1</text>
<text text-anchor="middle" x="394.89" y="-535.35" font-family="Times,serif" font-size="14.00">small_letter=0</text>
<text text-anchor="middle" x="394.89" y="-520.35" font-family="Times,serif" font-size="14.00">whitespace=0</text>
</g>
<!-- q1&#45;&gt;q1 -->
<g id="edge12" class="edge">
<title>q1&#45;&gt;q1</title>
<path fill="none" stroke="black" d="M246.18,-563.73C319.43,-570.5 437.89,-567.27 437.89,-554.05 437.89,-541.41 329.83,-537.9 256.31,-543.51"/>
<polygon fill="black" stroke="black" points="255.85,-540.03 246.18,-544.36 256.43,-547.01 255.85,-540.03"/>
<text text-anchor="middle" x="461.89" y="-550.35" font-family="Times,serif" font-size="14.00">rvalid=0</text>
</g>
<!-- q4 -->
<g id="node5" class="node">
<title>q4</title>
<ellipse fill="none" stroke="black" cx="443.86" cy="-237.68" rx="53.07" ry="26.74"/>
<text text-anchor="middle" x="443.86" y="-241.48" font-family="Times,serif" font-size="14.00">q4</text>
<text text-anchor="middle" x="443.86" y="-226.48" font-family="Times,serif" font-size="14.00">&#45;&#45;&#45;&#45;&#45;&#45;&#45;&#45;&#45;&#45;&#45;&#45;&#45;</text>
</g>
<!-- q1&#45;&gt;q4 -->
<g id="edge8" class="edge">
<title>q1&#45;&gt;q4</title>
<path fill="none" stroke="black" d="M241.38,-535.91C293.41,-514.13 375.77,-471.27 416.86,-405.55 441.78,-365.68 446.09,-310.37 445.82,-274.55"/>
<polygon fill="black" stroke="black" points="449.32,-274.48 445.62,-264.55 442.32,-274.62 449.32,-274.48"/>
<text text-anchor="middle" x="484.86" y="-394.35" font-family="Times,serif" font-size="14.00">capital_letter=0</text>
<text text-anchor="middle" x="484.86" y="-379.35" font-family="Times,serif" font-size="14.00">number=0</text>
<text text-anchor="middle" x="484.86" y="-364.35" font-family="Times,serif" font-size="14.00">rvalid=1</text>
<text text-anchor="middle" x="484.86" y="-349.35" font-family="Times,serif" font-size="14.00">small_letter=0</text>
<text text-anchor="middle" x="484.86" y="-334.35" font-family="Times,serif" font-size="14.00">whitespace=1</text>
</g>
<!-- q2 -->
<g id="node6" class="node">
<title>q2</title>
<ellipse fill="none" stroke="black" cx="194.86" cy="-368.05" rx="53.07" ry="37.45"/>
<text text-anchor="middle" x="194.86" y="-379.35" font-family="Times,serif" font-size="14.00">q2</text>
<text text-anchor="middle" x="194.86" y="-364.35" font-family="Times,serif" font-size="14.00">&#45;&#45;&#45;&#45;&#45;&#45;&#45;&#45;&#45;&#45;&#45;&#45;&#45;</text>
<text text-anchor="middle" x="194.86" y="-349.35" font-family="Times,serif" font-size="14.00">rready=1</text>
</g>
<!-- q1&#45;&gt;q2 -->
<g id="edge9" class="edge">
<title>q1&#45;&gt;q2</title>
<path fill="none" stroke="black" d="M194.86,-516.25C194.86,-487.42 194.86,-447.11 194.86,-415.96"/>
<polygon fill="black" stroke="black" points="198.36,-415.78 194.86,-405.78 191.36,-415.78 198.36,-415.78"/>
<text text-anchor="middle" x="237.86" y="-487.35" font-family="Times,serif" font-size="14.00">capital_letter=0</text>
<text text-anchor="middle" x="237.86" y="-472.35" font-family="Times,serif" font-size="14.00">number=1</text>
<text text-anchor="middle" x="237.86" y="-457.35" font-family="Times,serif" font-size="14.00">rvalid=1</text>
<text text-anchor="middle" x="237.86" y="-442.35" font-family="Times,serif" font-size="14.00">small_letter=0</text>
<text text-anchor="middle" x="237.86" y="-427.35" font-family="Times,serif" font-size="14.00">whitespace=0</text>
</g>
<!-- q4&#45;&gt;q4 -->
<g id="edge19" class="edge">
<title>q4&#45;&gt;q4</title>
<path fill="none" stroke="#c1b2ff" d="M493.65,-247.27C505.83,-246.56 514.89,-243.36 514.89,-237.68 514.89,-233.77 510.61,-231.03 503.97,-229.47"/>
<polygon fill="#c1b2ff" stroke="#c1b2ff" points="504.03,-225.95 493.65,-228.08 503.09,-232.89 504.03,-225.95"/>
<text text-anchor="middle" x="521.39" y="-233.98" font-family="Times,serif" font-size="14.00">@</text>
</g>
<!-- q4_tx -->
<g id="node8" class="node">
<title>q4_tx</title>
<ellipse fill="none" stroke="black" cx="521.86" cy="-79.9" rx="55.72" ry="79.81"/>
<text text-anchor="middle" x="521.86" y="-121.2" font-family="Times,serif" font-size="14.00">q4_tx</text>
<text text-anchor="middle" x="521.86" y="-106.2" font-family="Times,serif" font-size="14.00">&#45;&#45;&#45;&#45;&#45;&#45;&#45;&#45;&#45;&#45;&#45;&#45;&#45;</text>
<text text-anchor="middle" x="521.86" y="-91.2" font-family="Times,serif" font-size="14.00">putchar0=1</text>
<text text-anchor="middle" x="521.86" y="-76.2" font-family="Times,serif" font-size="14.00">putchar1=1</text>
<text text-anchor="middle" x="521.86" y="-61.2" font-family="Times,serif" font-size="14.00">putchar3=1</text>
<text text-anchor="middle" x="521.86" y="-46.2" font-family="Times,serif" font-size="14.00">putchar5=1</text>
<text text-anchor="middle" x="521.86" y="-31.2" font-family="Times,serif" font-size="14.00">wvalid=1</text>
</g>
<!-- q4&#45;&gt;q4_tx -->
<g id="edge20" class="edge">
<title>q4&#45;&gt;q4_tx</title>
<path fill="none" stroke="black" d="M456.57,-211.3C464.39,-195.68 474.85,-174.79 485.11,-154.31"/>
<polygon fill="black" stroke="black" points="488.29,-155.77 489.64,-145.26 482.03,-152.63 488.29,-155.77"/>
<text text-anchor="middle" x="498.86" y="-181.61" font-family="Times,serif" font-size="14.00">wready=1</text>
</g>
<!-- q2&#45;&gt;q3 -->
<g id="edge15" class="edge">
<title>q2&#45;&gt;q3</title>
<path fill="none" stroke="#c1b2ff" d="M172.75,-333.65C160.12,-314.58 144.35,-290.76 131.76,-271.75"/>
<polygon fill="#c1b2ff" stroke="#c1b2ff" points="134.66,-269.79 126.22,-263.38 128.82,-273.65 134.66,-269.79"/>
<text text-anchor="middle" x="163.36" y="-293.85" font-family="Times,serif" font-size="14.00">@</text>
</g>
<!-- q2&#45;&gt;q4 -->
<g id="edge16" class="edge">
<title>q2&#45;&gt;q4</title>
<path fill="none" stroke="black" d="M236.5,-344.41C268.45,-327.16 313.75,-302.97 353.86,-282.55 367.71,-275.5 382.85,-268.02 396.71,-261.28"/>
<polygon fill="black" stroke="black" points="398.59,-264.26 406.06,-256.74 395.53,-257.96 398.59,-264.26"/>
<text text-anchor="middle" x="391.86" y="-301.35" font-family="Times,serif" font-size="14.00">rvalid=1</text>
<text text-anchor="middle" x="391.86" y="-286.35" font-family="Times,serif" font-size="14.00">whitespace=1</text>
</g>
<!-- q2&#45;&gt;q2 -->
<g id="edge17" class="edge">
<title>q2&#45;&gt;q2</title>
<path fill="none" stroke="black" d="M247.21,-374.38C258.08,-373.71 265.89,-371.6 265.89,-368.05 265.89,-365.71 262.53,-364 257.14,-362.91"/>
<polygon fill="black" stroke="black" points="257.56,-359.44 247.21,-361.71 256.72,-366.39 257.56,-359.44"/>
<text text-anchor="middle" x="303.89" y="-379.35" font-family="Times,serif" font-size="14.00">number=1</text>
<text text-anchor="middle" x="303.89" y="-364.35" font-family="Times,serif" font-size="14.00">rvalid=1</text>
<text text-anchor="middle" x="303.89" y="-349.35" font-family="Times,serif" font-size="14.00">whitespace=0</text>
</g>
<!-- q2&#45;&gt;q2 -->
<g id="edge18" class="edge">
<title>q2&#45;&gt;q2</title>
<path fill="none" stroke="black" d="M245.53,-379.66C289.23,-383.64 341.89,-379.77 341.89,-368.05 341.89,-357.22 296.94,-353.09 255.65,-355.66"/>
<polygon fill="black" stroke="black" points="255.24,-352.18 245.53,-356.44 255.77,-359.16 255.24,-352.18"/>
<text text-anchor="middle" x="365.89" y="-364.35" font-family="Times,serif" font-size="14.00">rvalid=0</text>
</g>
<!-- q3_tx&#45;&gt;IDLE0 -->
<g id="edge21" class="edge">
<title>q3_tx&#45;&gt;IDLE0</title>
<path fill="none" stroke="#c1b2ff" d="M36.36,-154.86C31.11,-180.57 26.86,-209.72 26.86,-236.68 26.86,-696.02 26.86,-696.02 26.86,-696.02 26.86,-729.34 50.32,-759.62 71.98,-780.49"/>
<polygon fill="#c1b2ff" stroke="#c1b2ff" points="69.81,-783.25 79.53,-787.47 74.56,-778.11 69.81,-783.25"/>
<text text-anchor="middle" x="33.36" y="-457.35" font-family="Times,serif" font-size="14.00">@</text>
</g>
<!-- q4_tx&#45;&gt;IDLE0 -->
<g id="edge22" class="edge">
<title>q4_tx&#45;&gt;IDLE0</title>
<path fill="none" stroke="#c1b2ff" d="M545.57,-152.63C552.31,-178.78 557.86,-208.78 557.86,-236.68 557.86,-696.02 557.86,-696.02 557.86,-696.02 557.86,-774.87 294.76,-799.41 170.91,-806.59"/>
<polygon fill="#c1b2ff" stroke="#c1b2ff" points="170.59,-803.1 160.81,-807.16 170.99,-810.09 170.59,-803.1"/>
<text text-anchor="middle" x="564.36" y="-457.35" font-family="Times,serif" font-size="14.00">@</text>
</g>
</g>
</svg>
