<?xml version="1.0" encoding="UTF-8" standalone="no"?>
<!DOCTYPE svg PUBLIC "-//W3C//DTD SVG 1.1//EN"
 "http://www.w3.org/Graphics/SVG/1.1/DTD/svg11.dtd">
<!-- Generated by graphviz version 2.43.20190912.0211 (20190912.0211)
 -->
<!-- Title: G Pages: 1 -->
<svg width="1740pt" height="678pt"
 viewBox="0.00 0.00 1740.39 678.09" xmlns="http://www.w3.org/2000/svg" xmlns:xlink="http://www.w3.org/1999/xlink">
<g id="graph0" class="graph" transform="scale(1 1) rotate(0) translate(4 674.09)">
<title>G</title>
<polygon fill="white" stroke="transparent" points="-4,4 -4,-674.09 1736.39,-674.09 1736.39,4 -4,4"/>
<!-- IDLE0 -->
<g id="node1" class="node">
<title>IDLE0</title>
<ellipse fill="none" stroke="black" cx="878.39" cy="-632.62" rx="82.05" ry="37.45"/>
<text text-anchor="middle" x="878.39" y="-643.92" font-family="Times,serif" font-size="14.00">IDLE0</text>
<text text-anchor="middle" x="878.39" y="-628.92" font-family="Times,serif" font-size="14.00">&#45;&#45;&#45;&#45;&#45;&#45;&#45;&#45;&#45;&#45;&#45;&#45;&#45;</text>
<text text-anchor="middle" x="878.39" y="-613.92" font-family="Times,serif" font-size="14.00">mpu_ready=1</text>
</g>
<!-- IDLE0&#45;&gt;IDLE0 -->
<g id="edge1" class="edge">
<title>IDLE0&#45;&gt;IDLE0</title>
<path fill="none" stroke="#c1b2ff" d="M952.1,-649.26C967.41,-647.51 978.41,-641.96 978.41,-632.62 978.41,-625.46 971.96,-620.53 962.07,-617.83"/>
<polygon fill="#c1b2ff" stroke="#c1b2ff" points="962.58,-614.36 952.1,-615.97 961.29,-621.25 962.58,-614.36"/>
<text text-anchor="middle" x="985.91" y="-628.92" font-family="Times,serif" font-size="14.00">@</text>
</g>
<!-- EX_1F -->
<g id="node2" class="node">
<title>EX_1F</title>
<ellipse fill="none" stroke="black" cx="88.39" cy="-404.24" rx="68.68" ry="79.81"/>
<text text-anchor="middle" x="88.39" y="-445.54" font-family="Times,serif" font-size="14.00">EX_1F</text>
<text text-anchor="middle" x="88.39" y="-430.54" font-family="Times,serif" font-size="14.00">&#45;&#45;&#45;&#45;&#45;&#45;&#45;&#45;&#45;&#45;&#45;&#45;&#45;</text>
<text text-anchor="middle" x="88.39" y="-415.54" font-family="Times,serif" font-size="14.00">control0=1</text>
<text text-anchor="middle" x="88.39" y="-400.54" font-family="Times,serif" font-size="14.00">control1=1</text>
<text text-anchor="middle" x="88.39" y="-385.54" font-family="Times,serif" font-size="14.00">control2=1</text>
<text text-anchor="middle" x="88.39" y="-370.54" font-family="Times,serif" font-size="14.00">control3=1</text>
<text text-anchor="middle" x="88.39" y="-355.54" font-family="Times,serif" font-size="14.00">control4=1</text>
</g>
<!-- IDLE0&#45;&gt;EX_1F -->
<g id="edge2" class="edge">
<title>IDLE0&#45;&gt;EX_1F</title>
<path fill="none" stroke="black" d="M796.25,-631.22C610.82,-629.56 172,-620.98 122.39,-577.14 99.04,-556.51 88.93,-524.87 85.21,-494.33"/>
<polygon fill="black" stroke="black" points="88.65,-493.64 84.18,-484.03 81.69,-494.33 88.65,-493.64"/>
<text text-anchor="middle" x="152.89" y="-565.94" font-family="Times,serif" font-size="14.00">cmd4=1</text>
<text text-anchor="middle" x="152.89" y="-550.94" font-family="Times,serif" font-size="14.00">cmd3=1</text>
<text text-anchor="middle" x="152.89" y="-535.94" font-family="Times,serif" font-size="14.00">cmd2=1</text>
<text text-anchor="middle" x="152.89" y="-520.94" font-family="Times,serif" font-size="14.00">cmd1=1</text>
<text text-anchor="middle" x="152.89" y="-505.94" font-family="Times,serif" font-size="14.00">cmd0=1</text>
</g>
<!-- EX_2 -->
<g id="node3" class="node">
<title>EX_2</title>
<ellipse fill="none" stroke="black" cx="601.39" cy="-404.24" rx="68.68" ry="58.88"/>
<text text-anchor="middle" x="601.39" y="-430.54" font-family="Times,serif" font-size="14.00">EX_2</text>
<text text-anchor="middle" x="601.39" y="-415.54" font-family="Times,serif" font-size="14.00">&#45;&#45;&#45;&#45;&#45;&#45;&#45;&#45;&#45;&#45;&#45;&#45;&#45;</text>
<text text-anchor="middle" x="601.39" y="-400.54" font-family="Times,serif" font-size="14.00">control0=1</text>
<text text-anchor="middle" x="601.39" y="-385.54" font-family="Times,serif" font-size="14.00">control1=1</text>
<text text-anchor="middle" x="601.39" y="-370.54" font-family="Times,serif" font-size="14.00">control4=1</text>
</g>
<!-- IDLE0&#45;&gt;EX_2 -->
<g id="edge3" class="edge">
<title>IDLE0&#45;&gt;EX_2</title>
<path fill="none" stroke="black" d="M799.5,-622.02C740.79,-613.29 667.2,-598.5 645.39,-577.14 617.94,-550.26 606.8,-508.78 602.58,-473.31"/>
<polygon fill="black" stroke="black" points="606.02,-472.59 601.53,-463 599.06,-473.3 606.02,-472.59"/>
<text text-anchor="middle" x="675.89" y="-565.94" font-family="Times,serif" font-size="14.00">cmd4=0</text>
<text text-anchor="middle" x="675.89" y="-550.94" font-family="Times,serif" font-size="14.00">cmd3=0</text>
<text text-anchor="middle" x="675.89" y="-535.94" font-family="Times,serif" font-size="14.00">cmd2=0</text>
<text text-anchor="middle" x="675.89" y="-520.94" font-family="Times,serif" font-size="14.00">cmd1=1</text>
<text text-anchor="middle" x="675.89" y="-505.94" font-family="Times,serif" font-size="14.00">cmd0=0</text>
</g>
<!-- EX_1 -->
<g id="node4" class="node">
<title>EX_1</title>
<ellipse fill="none" stroke="black" cx="1138.39" cy="-404.24" rx="68.68" ry="37.45"/>
<text text-anchor="middle" x="1138.39" y="-415.54" font-family="Times,serif" font-size="14.00">EX_1</text>
<text text-anchor="middle" x="1138.39" y="-400.54" font-family="Times,serif" font-size="14.00">&#45;&#45;&#45;&#45;&#45;&#45;&#45;&#45;&#45;&#45;&#45;&#45;&#45;</text>
<text text-anchor="middle" x="1138.39" y="-385.54" font-family="Times,serif" font-size="14.00">control1=1</text>
</g>
<!-- IDLE0&#45;&gt;EX_1 -->
<g id="edge4" class="edge">
<title>IDLE0&#45;&gt;EX_1</title>
<path fill="none" stroke="black" d="M956.43,-621.01C989.04,-613.3 1025.51,-600.02 1052.39,-577.14 1090.88,-544.38 1113.93,-490.21 1126.33,-451.43"/>
<polygon fill="black" stroke="black" points="1129.81,-452.02 1129.41,-441.43 1123.12,-449.96 1129.81,-452.02"/>
<text text-anchor="middle" x="1134.89" y="-565.94" font-family="Times,serif" font-size="14.00">cmd4=0</text>
<text text-anchor="middle" x="1134.89" y="-550.94" font-family="Times,serif" font-size="14.00">cmd3=0</text>
<text text-anchor="middle" x="1134.89" y="-535.94" font-family="Times,serif" font-size="14.00">cmd2=0</text>
<text text-anchor="middle" x="1134.89" y="-520.94" font-family="Times,serif" font-size="14.00">cmd1=0</text>
<text text-anchor="middle" x="1134.89" y="-505.94" font-family="Times,serif" font-size="14.00">cmd0=1</text>
</g>
<!-- EX_0 -->
<g id="node5" class="node">
<title>EX_0</title>
<ellipse fill="none" stroke="black" cx="1536.39" cy="-404.24" rx="68.68" ry="37.45"/>
<text text-anchor="middle" x="1536.39" y="-415.54" font-family="Times,serif" font-size="14.00">EX_0</text>
<text text-anchor="middle" x="1536.39" y="-400.54" font-family="Times,serif" font-size="14.00">&#45;&#45;&#45;&#45;&#45;&#45;&#45;&#45;&#45;&#45;&#45;&#45;&#45;</text>
<text text-anchor="middle" x="1536.39" y="-385.54" font-family="Times,serif" font-size="14.00">control0=1</text>
</g>
<!-- IDLE0&#45;&gt;EX_0 -->
<g id="edge5" class="edge">
<title>IDLE0&#45;&gt;EX_0</title>
<path fill="none" stroke="black" d="M959.95,-628.3C1109.01,-621.59 1413.8,-604.68 1453.39,-577.14 1495.27,-548.01 1516.8,-491.74 1527.3,-451.52"/>
<polygon fill="black" stroke="black" points="1530.74,-452.21 1529.74,-441.66 1523.94,-450.53 1530.74,-452.21"/>
<text text-anchor="middle" x="1539.89" y="-565.94" font-family="Times,serif" font-size="14.00">cmd4=0</text>
<text text-anchor="middle" x="1539.89" y="-550.94" font-family="Times,serif" font-size="14.00">cmd3=0</text>
<text text-anchor="middle" x="1539.89" y="-535.94" font-family="Times,serif" font-size="14.00">cmd2=0</text>
<text text-anchor="middle" x="1539.89" y="-520.94" font-family="Times,serif" font-size="14.00">cmd1=0</text>
<text text-anchor="middle" x="1539.89" y="-505.94" font-family="Times,serif" font-size="14.00">cmd0=0</text>
</g>
<!-- EX_1F_STATE1 -->
<g id="node9" class="node">
<title>EX_1F_STATE1</title>
<ellipse fill="none" stroke="black" cx="88.39" cy="-246.46" rx="88.28" ry="26.74"/>
<text text-anchor="middle" x="88.39" y="-250.26" font-family="Times,serif" font-size="14.00">EX_1F_STATE1</text>
<text text-anchor="middle" x="88.39" y="-235.26" font-family="Times,serif" font-size="14.00">&#45;&#45;&#45;&#45;&#45;&#45;&#45;&#45;&#45;&#45;&#45;&#45;&#45;</text>
</g>
<!-- EX_1F&#45;&gt;EX_1F_STATE1 -->
<g id="edge9" class="edge">
<title>EX_1F&#45;&gt;EX_1F_STATE1</title>
<path fill="none" stroke="#c1b2ff" d="M51.32,-336.73C47.14,-321.74 46.05,-305.94 51.39,-291.33 52.7,-287.75 54.44,-284.26 56.46,-280.92"/>
<polygon fill="#c1b2ff" stroke="#c1b2ff" points="59.52,-282.65 62.34,-272.43 53.77,-278.66 59.52,-282.65"/>
<text text-anchor="middle" x="58.89" y="-295.13" font-family="Times,serif" font-size="14.00">@</text>
</g>
<!-- EX_2_STATE1 -->
<g id="node8" class="node">
<title>EX_2_STATE1</title>
<ellipse fill="none" stroke="black" cx="578.39" cy="-246.46" rx="81.13" ry="26.74"/>
<text text-anchor="middle" x="578.39" y="-250.26" font-family="Times,serif" font-size="14.00">EX_2_STATE1</text>
<text text-anchor="middle" x="578.39" y="-235.26" font-family="Times,serif" font-size="14.00">&#45;&#45;&#45;&#45;&#45;&#45;&#45;&#45;&#45;&#45;&#45;&#45;&#45;</text>
</g>
<!-- EX_2&#45;&gt;EX_2_STATE1 -->
<g id="edge8" class="edge">
<title>EX_2&#45;&gt;EX_2_STATE1</title>
<path fill="none" stroke="#c1b2ff" d="M592.89,-345.67C589.82,-324.86 586.43,-301.96 583.71,-283.51"/>
<polygon fill="#c1b2ff" stroke="#c1b2ff" points="587.15,-282.87 582.23,-273.49 580.23,-283.89 587.15,-282.87"/>
<text text-anchor="middle" x="594.89" y="-295.13" font-family="Times,serif" font-size="14.00">@</text>
</g>
<!-- EX_1_STATE1 -->
<g id="node7" class="node">
<title>EX_1_STATE1</title>
<ellipse fill="none" stroke="black" cx="1147.39" cy="-246.46" rx="81.13" ry="26.74"/>
<text text-anchor="middle" x="1147.39" y="-250.26" font-family="Times,serif" font-size="14.00">EX_1_STATE1</text>
<text text-anchor="middle" x="1147.39" y="-235.26" font-family="Times,serif" font-size="14.00">&#45;&#45;&#45;&#45;&#45;&#45;&#45;&#45;&#45;&#45;&#45;&#45;&#45;</text>
</g>
<!-- EX_1&#45;&gt;EX_1_STATE1 -->
<g id="edge7" class="edge">
<title>EX_1&#45;&gt;EX_1_STATE1</title>
<path fill="none" stroke="#c1b2ff" d="M1140.5,-366.71C1141.94,-341.69 1143.85,-308.65 1145.3,-283.69"/>
<polygon fill="#c1b2ff" stroke="#c1b2ff" points="1148.8,-283.72 1145.88,-273.53 1141.81,-283.32 1148.8,-283.72"/>
<text text-anchor="middle" x="1152.89" y="-295.13" font-family="Times,serif" font-size="14.00">@</text>
</g>
<!-- EX_0_STATE1 -->
<g id="node6" class="node">
<title>EX_0_STATE1</title>
<ellipse fill="none" stroke="black" cx="1607.39" cy="-246.46" rx="81.13" ry="26.74"/>
<text text-anchor="middle" x="1607.39" y="-250.26" font-family="Times,serif" font-size="14.00">EX_0_STATE1</text>
<text text-anchor="middle" x="1607.39" y="-235.26" font-family="Times,serif" font-size="14.00">&#45;&#45;&#45;&#45;&#45;&#45;&#45;&#45;&#45;&#45;&#45;&#45;&#45;</text>
</g>
<!-- EX_0&#45;&gt;EX_0_STATE1 -->
<g id="edge6" class="edge">
<title>EX_0&#45;&gt;EX_0_STATE1</title>
<path fill="none" stroke="#c1b2ff" d="M1552.68,-367.5C1564.29,-342.01 1579.84,-307.91 1591.39,-282.56"/>
<polygon fill="#c1b2ff" stroke="#c1b2ff" points="1594.64,-283.87 1595.6,-273.32 1588.27,-280.96 1594.64,-283.87"/>
<text text-anchor="middle" x="1594.89" y="-295.13" font-family="Times,serif" font-size="14.00">@</text>
</g>
<!-- EX_0_STATE1&#45;&gt;IDLE0 -->
<g id="edge11" class="edge">
<title>EX_0_STATE1&#45;&gt;IDLE0</title>
<path fill="none" stroke="black" d="M1615.4,-273.33C1633.75,-338.38 1670.27,-508.49 1574.39,-577.14 1526.38,-611.51 1148.27,-625.12 970.36,-629.66"/>
<polygon fill="black" stroke="black" points="970.13,-626.16 960.22,-629.91 970.31,-633.16 970.13,-626.16"/>
<text text-anchor="middle" x="1685.39" y="-400.54" font-family="Times,serif" font-size="14.00">feedback0=1</text>
</g>
<!-- EX_0_STATE1&#45;&gt;EX_0_STATE1 -->
<g id="edge10" class="edge">
<title>EX_0_STATE1&#45;&gt;EX_0_STATE1</title>
<path fill="none" stroke="#c1b2ff" d="M1684.01,-255.6C1697.39,-254.38 1706.71,-251.34 1706.71,-246.46 1706.71,-242.92 1701.79,-240.34 1693.97,-238.73"/>
<polygon fill="#c1b2ff" stroke="#c1b2ff" points="1694.4,-235.26 1684.01,-237.32 1693.42,-242.19 1694.4,-235.26"/>
<text text-anchor="middle" x="1714.21" y="-242.76" font-family="Times,serif" font-size="14.00">@</text>
</g>
<!-- EX_1_STATE1&#45;&gt;EX_1_STATE1 -->
<g id="edge12" class="edge">
<title>EX_1_STATE1&#45;&gt;EX_1_STATE1</title>
<path fill="none" stroke="#c1b2ff" d="M1224.01,-255.6C1237.39,-254.38 1246.71,-251.34 1246.71,-246.46 1246.71,-242.92 1241.79,-240.34 1233.97,-238.73"/>
<polygon fill="#c1b2ff" stroke="#c1b2ff" points="1234.4,-235.26 1224.01,-237.32 1233.42,-242.19 1234.4,-235.26"/>
<text text-anchor="middle" x="1254.21" y="-242.76" font-family="Times,serif" font-size="14.00">@</text>
</g>
<!-- EX_1_FB4 -->
<g id="node10" class="node">
<title>EX_1_FB4</title>
<ellipse fill="none" stroke="black" cx="1259.39" cy="-69.3" rx="68.68" ry="37.45"/>
<text text-anchor="middle" x="1259.39" y="-80.6" font-family="Times,serif" font-size="14.00">EX_1_FB4</text>
<text text-anchor="middle" x="1259.39" y="-65.6" font-family="Times,serif" font-size="14.00">&#45;&#45;&#45;&#45;&#45;&#45;&#45;&#45;&#45;&#45;&#45;&#45;&#45;</text>
<text text-anchor="middle" x="1259.39" y="-50.6" font-family="Times,serif" font-size="14.00">control4=1</text>
</g>
<!-- EX_1_STATE1&#45;&gt;EX_1_FB4 -->
<g id="edge13" class="edge">
<title>EX_1_STATE1&#45;&gt;EX_1_FB4</title>
<path fill="none" stroke="black" d="M1158.75,-219.68C1168.61,-197.62 1182.39,-167.72 1189.39,-156.59 1199.18,-141.03 1211.38,-125.1 1222.84,-111.22"/>
<polygon fill="black" stroke="black" points="1225.73,-113.22 1229.48,-103.31 1220.37,-108.72 1225.73,-113.22"/>
<text text-anchor="middle" x="1236.39" y="-190.39" font-family="Times,serif" font-size="14.00">feedback0=0</text>
<text text-anchor="middle" x="1236.39" y="-175.39" font-family="Times,serif" font-size="14.00">feedback1=0</text>
<text text-anchor="middle" x="1236.39" y="-160.39" font-family="Times,serif" font-size="14.00">feedback2=1</text>
</g>
<!-- EX_1_FB3 -->
<g id="node11" class="node">
<title>EX_1_FB3</title>
<ellipse fill="none" stroke="black" cx="1082.39" cy="-69.3" rx="68.68" ry="37.45"/>
<text text-anchor="middle" x="1082.39" y="-80.6" font-family="Times,serif" font-size="14.00">EX_1_FB3</text>
<text text-anchor="middle" x="1082.39" y="-65.6" font-family="Times,serif" font-size="14.00">&#45;&#45;&#45;&#45;&#45;&#45;&#45;&#45;&#45;&#45;&#45;&#45;&#45;</text>
<text text-anchor="middle" x="1082.39" y="-50.6" font-family="Times,serif" font-size="14.00">control3=1</text>
</g>
<!-- EX_1_STATE1&#45;&gt;EX_1_FB3 -->
<g id="edge14" class="edge">
<title>EX_1_STATE1&#45;&gt;EX_1_FB3</title>
<path fill="none" stroke="black" d="M1096.37,-225.4C1086.79,-219.24 1078.02,-211.41 1072.39,-201.59 1057.66,-175.92 1060.39,-142.64 1066.68,-116"/>
<polygon fill="black" stroke="black" points="1070.11,-116.71 1069.24,-106.15 1063.34,-114.95 1070.11,-116.71"/>
<text text-anchor="middle" x="1119.39" y="-190.39" font-family="Times,serif" font-size="14.00">feedback0=1</text>
<text text-anchor="middle" x="1119.39" y="-175.39" font-family="Times,serif" font-size="14.00">feedback1=1</text>
<text text-anchor="middle" x="1119.39" y="-160.39" font-family="Times,serif" font-size="14.00">feedback2=0</text>
</g>
<!-- EX_1_FB2 -->
<g id="node12" class="node">
<title>EX_1_FB2</title>
<ellipse fill="none" stroke="black" cx="927.39" cy="-69.3" rx="68.68" ry="37.45"/>
<text text-anchor="middle" x="927.39" y="-80.6" font-family="Times,serif" font-size="14.00">EX_1_FB2</text>
<text text-anchor="middle" x="927.39" y="-65.6" font-family="Times,serif" font-size="14.00">&#45;&#45;&#45;&#45;&#45;&#45;&#45;&#45;&#45;&#45;&#45;&#45;&#45;</text>
<text text-anchor="middle" x="927.39" y="-50.6" font-family="Times,serif" font-size="14.00">control2=1</text>
</g>
<!-- EX_1_STATE1&#45;&gt;EX_1_FB2 -->
<g id="edge15" class="edge">
<title>EX_1_STATE1&#45;&gt;EX_1_FB2</title>
<path fill="none" stroke="black" d="M1073.07,-235.41C1029.57,-228.07 980.17,-216.76 964.39,-201.59 941.66,-179.74 932.56,-145.1 929.07,-116.89"/>
<polygon fill="black" stroke="black" points="932.54,-116.4 928.02,-106.82 925.57,-117.13 932.54,-116.4"/>
<text text-anchor="middle" x="1011.39" y="-190.39" font-family="Times,serif" font-size="14.00">feedback0=0</text>
<text text-anchor="middle" x="1011.39" y="-175.39" font-family="Times,serif" font-size="14.00">feedback1=1</text>
<text text-anchor="middle" x="1011.39" y="-160.39" font-family="Times,serif" font-size="14.00">feedback2=0</text>
</g>
<!-- EX_1_FB1 -->
<g id="node13" class="node">
<title>EX_1_FB1</title>
<ellipse fill="none" stroke="black" cx="1425.39" cy="-69.3" rx="68.68" ry="37.45"/>
<text text-anchor="middle" x="1425.39" y="-80.6" font-family="Times,serif" font-size="14.00">EX_1_FB1</text>
<text text-anchor="middle" x="1425.39" y="-65.6" font-family="Times,serif" font-size="14.00">&#45;&#45;&#45;&#45;&#45;&#45;&#45;&#45;&#45;&#45;&#45;&#45;&#45;</text>
<text text-anchor="middle" x="1425.39" y="-50.6" font-family="Times,serif" font-size="14.00">control1=1</text>
</g>
<!-- EX_1_STATE1&#45;&gt;EX_1_FB1 -->
<g id="edge16" class="edge">
<title>EX_1_STATE1&#45;&gt;EX_1_FB1</title>
<path fill="none" stroke="black" d="M1215.09,-231.48C1239.04,-224.71 1265.46,-215.04 1287.39,-201.59 1311.23,-186.97 1311.3,-176.06 1331.39,-156.59 1347.8,-140.69 1366.24,-123.6 1382.41,-108.86"/>
<polygon fill="black" stroke="black" points="1385.11,-111.14 1390.15,-101.82 1380.4,-105.96 1385.11,-111.14"/>
<text text-anchor="middle" x="1378.39" y="-190.39" font-family="Times,serif" font-size="14.00">feedback0=1</text>
<text text-anchor="middle" x="1378.39" y="-175.39" font-family="Times,serif" font-size="14.00">feedback1=0</text>
<text text-anchor="middle" x="1378.39" y="-160.39" font-family="Times,serif" font-size="14.00">feedback2=0</text>
</g>
<!-- EX_2_STATE1&#45;&gt;EX_2_STATE1 -->
<g id="edge21" class="edge">
<title>EX_2_STATE1&#45;&gt;EX_2_STATE1</title>
<path fill="none" stroke="#c1b2ff" d="M655.01,-255.6C668.39,-254.38 677.71,-251.34 677.71,-246.46 677.71,-242.92 672.79,-240.34 664.97,-238.73"/>
<polygon fill="#c1b2ff" stroke="#c1b2ff" points="665.4,-235.26 655.01,-237.32 664.42,-242.19 665.4,-235.26"/>
<text text-anchor="middle" x="685.21" y="-242.76" font-family="Times,serif" font-size="14.00">@</text>
</g>
<!-- EX_2_FB4 -->
<g id="node14" class="node">
<title>EX_2_FB4</title>
<ellipse fill="none" stroke="black" cx="617.39" cy="-69.3" rx="68.68" ry="69.09"/>
<text text-anchor="middle" x="617.39" y="-103.1" font-family="Times,serif" font-size="14.00">EX_2_FB4</text>
<text text-anchor="middle" x="617.39" y="-88.1" font-family="Times,serif" font-size="14.00">&#45;&#45;&#45;&#45;&#45;&#45;&#45;&#45;&#45;&#45;&#45;&#45;&#45;</text>
<text text-anchor="middle" x="617.39" y="-73.1" font-family="Times,serif" font-size="14.00">control0=1</text>
<text text-anchor="middle" x="617.39" y="-58.1" font-family="Times,serif" font-size="14.00">control1=1</text>
<text text-anchor="middle" x="617.39" y="-43.1" font-family="Times,serif" font-size="14.00">control2=1</text>
<text text-anchor="middle" x="617.39" y="-28.1" font-family="Times,serif" font-size="14.00">control3=1</text>
</g>
<!-- EX_2_STATE1&#45;&gt;EX_2_FB4 -->
<g id="edge22" class="edge">
<title>EX_2_STATE1&#45;&gt;EX_2_FB4</title>
<path fill="none" stroke="black" d="M585.06,-219.52C586.52,-213.63 588.04,-207.41 589.39,-201.59 593.48,-183.97 597.66,-164.96 601.5,-147.03"/>
<polygon fill="black" stroke="black" points="604.94,-147.7 603.6,-137.19 598.09,-146.24 604.94,-147.7"/>
<text text-anchor="middle" x="646.39" y="-190.39" font-family="Times,serif" font-size="14.00">feedback0=0</text>
<text text-anchor="middle" x="646.39" y="-175.39" font-family="Times,serif" font-size="14.00">feedback1=0</text>
<text text-anchor="middle" x="646.39" y="-160.39" font-family="Times,serif" font-size="14.00">feedback2=1</text>
</g>
<!-- EX_2_FB3 -->
<g id="node15" class="node">
<title>EX_2_FB3</title>
<ellipse fill="none" stroke="black" cx="462.39" cy="-69.3" rx="68.68" ry="69.09"/>
<text text-anchor="middle" x="462.39" y="-103.1" font-family="Times,serif" font-size="14.00">EX_2_FB3</text>
<text text-anchor="middle" x="462.39" y="-88.1" font-family="Times,serif" font-size="14.00">&#45;&#45;&#45;&#45;&#45;&#45;&#45;&#45;&#45;&#45;&#45;&#45;&#45;</text>
<text text-anchor="middle" x="462.39" y="-73.1" font-family="Times,serif" font-size="14.00">control0=1</text>
<text text-anchor="middle" x="462.39" y="-58.1" font-family="Times,serif" font-size="14.00">control1=1</text>
<text text-anchor="middle" x="462.39" y="-43.1" font-family="Times,serif" font-size="14.00">control2=1</text>
<text text-anchor="middle" x="462.39" y="-28.1" font-family="Times,serif" font-size="14.00">control4=1</text>
</g>
<!-- EX_2_STATE1&#45;&gt;EX_2_FB3 -->
<g id="edge23" class="edge">
<title>EX_2_STATE1&#45;&gt;EX_2_FB3</title>
<path fill="none" stroke="black" d="M522.89,-226.68C511.01,-220.36 499.59,-212.15 491.39,-201.59 484.34,-192.52 478.42,-171.01 473.81,-147.97"/>
<polygon fill="black" stroke="black" points="477.23,-147.2 471.91,-138.04 470.35,-148.52 477.23,-147.2"/>
<text text-anchor="middle" x="538.39" y="-190.39" font-family="Times,serif" font-size="14.00">feedback0=1</text>
<text text-anchor="middle" x="538.39" y="-175.39" font-family="Times,serif" font-size="14.00">feedback1=1</text>
<text text-anchor="middle" x="538.39" y="-160.39" font-family="Times,serif" font-size="14.00">feedback2=0</text>
</g>
<!-- EX_2_FB2 -->
<g id="node16" class="node">
<title>EX_2_FB2</title>
<ellipse fill="none" stroke="black" cx="307.39" cy="-69.3" rx="68.68" ry="69.09"/>
<text text-anchor="middle" x="307.39" y="-103.1" font-family="Times,serif" font-size="14.00">EX_2_FB2</text>
<text text-anchor="middle" x="307.39" y="-88.1" font-family="Times,serif" font-size="14.00">&#45;&#45;&#45;&#45;&#45;&#45;&#45;&#45;&#45;&#45;&#45;&#45;&#45;</text>
<text text-anchor="middle" x="307.39" y="-73.1" font-family="Times,serif" font-size="14.00">control0=1</text>
<text text-anchor="middle" x="307.39" y="-58.1" font-family="Times,serif" font-size="14.00">control1=1</text>
<text text-anchor="middle" x="307.39" y="-43.1" font-family="Times,serif" font-size="14.00">control3=1</text>
<text text-anchor="middle" x="307.39" y="-28.1" font-family="Times,serif" font-size="14.00">control4=1</text>
</g>
<!-- EX_2_STATE1&#45;&gt;EX_2_FB2 -->
<g id="edge24" class="edge">
<title>EX_2_STATE1&#45;&gt;EX_2_FB2</title>
<path fill="none" stroke="black" d="M497.38,-243.14C458.15,-238.4 412.32,-227.15 378.39,-201.59 359.1,-187.07 344.44,-165.72 333.61,-144.44"/>
<polygon fill="black" stroke="black" points="336.71,-142.81 329.19,-135.34 330.41,-145.87 336.71,-142.81"/>
<text text-anchor="middle" x="425.39" y="-190.39" font-family="Times,serif" font-size="14.00">feedback0=0</text>
<text text-anchor="middle" x="425.39" y="-175.39" font-family="Times,serif" font-size="14.00">feedback1=1</text>
<text text-anchor="middle" x="425.39" y="-160.39" font-family="Times,serif" font-size="14.00">feedback2=0</text>
</g>
<!-- EX_2_FB1 -->
<g id="node17" class="node">
<title>EX_2_FB1</title>
<ellipse fill="none" stroke="black" cx="772.39" cy="-69.3" rx="68.68" ry="69.09"/>
<text text-anchor="middle" x="772.39" y="-103.1" font-family="Times,serif" font-size="14.00">EX_2_FB1</text>
<text text-anchor="middle" x="772.39" y="-88.1" font-family="Times,serif" font-size="14.00">&#45;&#45;&#45;&#45;&#45;&#45;&#45;&#45;&#45;&#45;&#45;&#45;&#45;</text>
<text text-anchor="middle" x="772.39" y="-73.1" font-family="Times,serif" font-size="14.00">control0=1</text>
<text text-anchor="middle" x="772.39" y="-58.1" font-family="Times,serif" font-size="14.00">control2=1</text>
<text text-anchor="middle" x="772.39" y="-43.1" font-family="Times,serif" font-size="14.00">control3=1</text>
<text text-anchor="middle" x="772.39" y="-28.1" font-family="Times,serif" font-size="14.00">control4=1</text>
</g>
<!-- EX_2_STATE1&#45;&gt;EX_2_FB1 -->
<g id="edge25" class="edge">
<title>EX_2_STATE1&#45;&gt;EX_2_FB1</title>
<path fill="none" stroke="black" d="M643.91,-230.42C662.64,-223.83 682.1,-214.54 697.39,-201.59 716.06,-185.79 731.08,-164.09 742.62,-142.89"/>
<polygon fill="black" stroke="black" points="745.82,-144.33 747.36,-133.85 739.62,-141.08 745.82,-144.33"/>
<text text-anchor="middle" x="781.39" y="-190.39" font-family="Times,serif" font-size="14.00">feedback0=1</text>
<text text-anchor="middle" x="781.39" y="-175.39" font-family="Times,serif" font-size="14.00">feedback1=0</text>
<text text-anchor="middle" x="781.39" y="-160.39" font-family="Times,serif" font-size="14.00">feedback2=0</text>
</g>
<!-- EX_1F_STATE1&#45;&gt;IDLE0 -->
<g id="edge32" class="edge">
<title>EX_1F_STATE1&#45;&gt;IDLE0</title>
<path fill="none" stroke="black" d="M150.99,-265.62C163.4,-271.91 175.13,-280.27 183.39,-291.33 235.18,-360.72 172.37,-406.84 211.39,-484.14 237.87,-536.6 252.15,-552.24 305.39,-577.14 388.34,-615.93 646.24,-627.1 786.05,-630.32"/>
<polygon fill="black" stroke="black" points="786.24,-633.82 796.32,-630.54 786.4,-626.82 786.24,-633.82"/>
<text text-anchor="middle" x="258.39" y="-408.04" font-family="Times,serif" font-size="14.00">feedback2=1</text>
<text text-anchor="middle" x="258.39" y="-393.04" font-family="Times,serif" font-size="14.00">feedback3=0</text>
</g>
<!-- EX_1F_STATE1&#45;&gt;EX_1F -->
<g id="edge31" class="edge">
<title>EX_1F_STATE1&#45;&gt;EX_1F</title>
<path fill="none" stroke="black" d="M88.39,-273.34C88.39,-284.77 88.39,-298.95 88.39,-313.7"/>
<polygon fill="black" stroke="black" points="84.89,-313.98 88.39,-323.98 91.89,-313.98 84.89,-313.98"/>
<text text-anchor="middle" x="135.39" y="-295.13" font-family="Times,serif" font-size="14.00">feedback4=1</text>
</g>
<!-- EX_1F_STATE1&#45;&gt;EX_1F_STATE1 -->
<g id="edge30" class="edge">
<title>EX_1F_STATE1&#45;&gt;EX_1F_STATE1</title>
<path fill="none" stroke="#c1b2ff" d="M171.8,-255.48C185.42,-254.19 194.78,-251.19 194.78,-246.46 194.78,-243.03 189.84,-240.51 181.91,-238.89"/>
<polygon fill="#c1b2ff" stroke="#c1b2ff" points="182.19,-235.39 171.8,-237.44 181.2,-242.32 182.19,-235.39"/>
<text text-anchor="middle" x="202.28" y="-242.76" font-family="Times,serif" font-size="14.00">@</text>
</g>
<!-- EX_1_FB4&#45;&gt;IDLE0 -->
<g id="edge20" class="edge">
<title>EX_1_FB4&#45;&gt;IDLE0</title>
<path fill="none" stroke="#c1b2ff" d="M1271.77,-106.37C1276.41,-121.66 1281.1,-139.8 1283.39,-156.59 1286.09,-176.41 1285.18,-181.67 1283.39,-201.59 1267.77,-375.32 1308.88,-472.42 1169.39,-577.14 1138.28,-600.5 1042.21,-615.28 968.88,-623.46"/>
<polygon fill="#c1b2ff" stroke="#c1b2ff" points="968.25,-620.01 958.69,-624.57 969.01,-626.97 968.25,-620.01"/>
<text text-anchor="middle" x="1286.89" y="-295.13" font-family="Times,serif" font-size="14.00">@</text>
</g>
<!-- EX_1_FB3&#45;&gt;IDLE0 -->
<g id="edge19" class="edge">
<title>EX_1_FB3&#45;&gt;IDLE0</title>
<path fill="none" stroke="#c1b2ff" d="M1070.35,-106.19C1042.24,-189.49 969.52,-402.13 901.39,-577.14 900.22,-580.15 898.98,-583.25 897.72,-586.36"/>
<polygon fill="#c1b2ff" stroke="#c1b2ff" points="894.45,-585.11 893.89,-595.69 900.93,-587.77 894.45,-585.11"/>
<text text-anchor="middle" x="1013.89" y="-295.13" font-family="Times,serif" font-size="14.00">@</text>
</g>
<!-- EX_1_FB2&#45;&gt;IDLE0 -->
<g id="edge18" class="edge">
<title>EX_1_FB2&#45;&gt;IDLE0</title>
<path fill="none" stroke="#c1b2ff" d="M924.19,-106.9C915.61,-205.28 892.03,-475.35 882.48,-584.72"/>
<polygon fill="#c1b2ff" stroke="#c1b2ff" points="878.99,-584.52 881.6,-594.79 885.96,-585.13 878.99,-584.52"/>
<text text-anchor="middle" x="915.89" y="-295.13" font-family="Times,serif" font-size="14.00">@</text>
</g>
<!-- EX_1_FB1&#45;&gt;IDLE0 -->
<g id="edge17" class="edge">
<title>EX_1_FB1&#45;&gt;IDLE0</title>
<path fill="none" stroke="#c1b2ff" d="M1429.93,-106.78C1432.16,-133.43 1432.96,-170.24 1425.39,-201.59 1389.97,-348.18 1289.36,-532.16 1220.39,-577.14 1180.12,-603.4 1056.7,-618.11 969.74,-625.45"/>
<polygon fill="#c1b2ff" stroke="#c1b2ff" points="969.26,-621.98 959.58,-626.29 969.84,-628.96 969.26,-621.98"/>
<text text-anchor="middle" x="1404.89" y="-295.13" font-family="Times,serif" font-size="14.00">@</text>
</g>
<!-- EX_2_FB4&#45;&gt;IDLE0 -->
<g id="edge29" class="edge">
<title>EX_2_FB4&#45;&gt;IDLE0</title>
<path fill="none" stroke="#c1b2ff" d="M667.02,-117.35C677.99,-129.42 688.87,-142.88 697.39,-156.59 787.17,-301.15 844.39,-497.43 867.16,-585.51"/>
<polygon fill="#c1b2ff" stroke="#c1b2ff" points="863.77,-586.38 869.64,-595.2 870.55,-584.65 863.77,-586.38"/>
<text text-anchor="middle" x="780.89" y="-295.13" font-family="Times,serif" font-size="14.00">@</text>
</g>
<!-- EX_2_FB3&#45;&gt;IDLE0 -->
<g id="edge28" class="edge">
<title>EX_2_FB3&#45;&gt;IDLE0</title>
<path fill="none" stroke="#c1b2ff" d="M460.4,-138.69C460.56,-223.78 469.65,-371.58 523.39,-484.14 547.13,-533.87 557.64,-549.64 605.39,-577.14 660.39,-608.82 730.8,-622.33 786.34,-627.98"/>
<polygon fill="#c1b2ff" stroke="#c1b2ff" points="786.25,-631.49 796.53,-628.94 786.91,-624.52 786.25,-631.49"/>
<text text-anchor="middle" x="479.89" y="-295.13" font-family="Times,serif" font-size="14.00">@</text>
</g>
<!-- EX_2_FB2&#45;&gt;IDLE0 -->
<g id="edge27" class="edge">
<title>EX_2_FB2&#45;&gt;IDLE0</title>
<path fill="none" stroke="#c1b2ff" d="M314.37,-138.29C330.09,-251.79 379.51,-477.24 529.39,-577.14 570.48,-604.53 697.98,-619.01 786.92,-625.99"/>
<polygon fill="#c1b2ff" stroke="#c1b2ff" points="786.78,-629.49 797.02,-626.77 787.32,-622.51 786.78,-629.49"/>
<text text-anchor="middle" x="358.89" y="-295.13" font-family="Times,serif" font-size="14.00">@</text>
</g>
<!-- EX_2_FB1&#45;&gt;IDLE0 -->
<g id="edge26" class="edge">
<title>EX_2_FB1&#45;&gt;IDLE0</title>
<path fill="none" stroke="#c1b2ff" d="M815.62,-123.66C822.24,-134.08 828.24,-145.29 832.39,-156.59 860.98,-234.42 872.98,-480.86 876.86,-584.73"/>
<polygon fill="#c1b2ff" stroke="#c1b2ff" points="873.37,-585.05 877.23,-594.92 880.36,-584.79 873.37,-585.05"/>
<text text-anchor="middle" x="866.89" y="-295.13" font-family="Times,serif" font-size="14.00">@</text>
</g>
</g>
</svg>
